<svg xmlns="http://www.w3.org/2000/svg" xmlns:xlink="http://www.w3.org/1999/xlink" width="750" height="440" viewBox="0 0 750 440"><rect width="100%" height="100%" fill="#DDDDDD"/><path d="M149.04 183.49L199.49 183.49L199.49 188.89Q199.49 191.32 198.98 192.81Q198.48 194.30 197.97 195.31L197.97 195.31L170.30 252.27Q169.44 254.04 167.87 255.27Q166.31 256.51 163.68 256.51L163.68 256.51L154.64 256.51L182.87 200.71Q183.83 198.99 184.77 197.55Q185.70 196.11 186.86 194.80L186.86 194.80L151.92 194.80Q150.75 194.80 149.90 193.94Q149.04 193.08 149.04 191.92L149.04 191.92L149.04 183.49ZM226.00 194.80L223.42 210.00Q225.85 209.50 228.07 209.27Q230.29 209.04 232.36 209.04L232.36 209.04Q238.12 209.04 242.51 210.76Q246.91 212.48 249.89 215.51Q252.87 218.54 254.38 222.60Q255.90 226.67 255.90 231.36L255.90 231.36Q255.90 237.17 253.85 241.97Q251.81 246.77 248.17 250.17Q244.53 253.58 239.56 255.45Q234.58 257.32 228.73 257.32L228.73 257.32Q225.29 257.32 222.21 256.61Q219.13 255.91 216.43 254.72Q213.73 253.53 211.43 251.99Q209.13 250.45 207.31 248.73L207.31 248.73L211.15 243.43Q212.36 241.72 214.33 241.72L214.33 241.72Q215.60 241.72 216.91 242.52Q218.22 243.33 219.91 244.29Q221.61 245.25 223.90 246.06Q226.20 246.87 229.43 246.87L229.43 246.87Q232.87 246.87 235.49 245.76Q238.12 244.64 239.86 242.65Q241.60 240.65 242.49 237.90Q243.37 235.15 243.37 231.92L243.37 231.92Q243.37 225.96 239.91 222.60Q236.45 219.24 229.69 219.24L229.69 219.24Q224.48 219.24 219.03 221.16L219.03 221.16L211.25 218.94L217.31 183.49L253.37 183.49L253.37 188.79Q253.37 191.47 251.70 193.13Q250.04 194.80 246.05 194.80L246.05 194.80L226.00 194.80ZM317.56 220L317.56 220Q317.56 229.54 315.51 236.59Q313.47 243.63 309.86 248.23Q306.24 252.83 301.32 255.07Q296.40 257.32 290.69 257.32L290.69 257.32Q284.98 257.32 280.11 255.07Q275.24 252.83 271.65 248.23Q268.07 243.63 266.05 236.59Q264.03 229.54 264.03 220L264.03 220Q264.03 210.41 266.05 203.39Q268.07 196.37 271.65 191.77Q275.24 187.18 280.11 184.93Q284.98 182.68 290.69 182.68L290.69 182.68Q296.40 182.68 301.32 184.93Q306.24 187.18 309.86 191.77Q313.47 196.37 315.51 203.39Q317.56 210.41 317.56 220ZM304.68 220L304.68 220Q304.68 212.07 303.52 206.87Q302.36 201.67 300.41 198.59Q298.47 195.51 295.94 194.27Q293.42 193.03 290.69 193.03L290.69 193.03Q288.01 193.03 285.51 194.27Q283.01 195.51 281.10 198.59Q279.18 201.67 278.04 206.87Q276.90 212.07 276.90 220L276.90 220Q276.90 227.93 278.04 233.13Q279.18 238.33 281.10 241.41Q283.01 244.49 285.51 245.73Q288.01 246.97 290.69 246.97L290.69 246.97Q293.42 246.97 295.94 245.73Q298.47 244.49 300.41 241.41Q302.36 238.33 303.52 233.13Q304.68 227.93 304.68 220ZM397.75 239.80L391.13 246.31L374.02 229.19L356.74 246.41L350.13 239.90L367.40 222.58L350.94 206.11L357.50 199.55L373.96 216.01L390.33 199.65L396.99 206.21L380.58 222.63L397.75 239.80ZM441.48 228.99L463.70 228.99L463.70 205.10Q463.70 201.72 464.16 197.63L464.16 197.63L441.48 228.99ZM474.56 228.99L483.75 228.99L483.75 236.21Q483.75 237.22 483.10 237.95Q482.44 238.69 481.23 238.69L481.23 238.69L474.56 238.69L474.56 256.51L463.70 256.51L463.70 238.69L432.90 238.69Q431.64 238.69 430.68 237.90Q429.72 237.12 429.46 235.96L429.46 235.96L428.15 229.65L462.74 183.44L474.56 183.44L474.56 228.99ZM500.06 228.99L522.28 228.99L522.28 205.10Q522.28 201.72 522.74 197.63L522.74 197.63L500.06 228.99ZM533.14 228.99L542.33 228.99L542.33 236.21Q542.33 237.22 541.68 237.95Q541.02 238.69 539.81 238.69L539.81 238.69L533.14 238.69L533.14 256.51L522.28 256.51L522.28 238.69L491.48 238.69Q490.22 238.69 489.26 237.90Q488.30 237.12 488.04 235.96L488.04 235.96L486.73 229.65L521.32 183.44L533.14 183.44L533.14 228.99ZM600.96 220L600.96 220Q600.96 229.54 598.92 236.59Q596.87 243.63 593.26 248.23Q589.65 252.83 584.73 255.07Q579.80 257.32 574.10 257.32L574.10 257.32Q568.39 257.32 563.52 255.07Q558.64 252.83 555.06 248.23Q551.47 243.63 549.45 236.59Q547.43 229.54 547.43 220L547.43 220Q547.43 210.41 549.45 203.39Q551.47 196.37 555.06 191.77Q558.64 187.18 563.52 184.93Q568.39 182.68 574.10 182.68L574.10 182.68Q579.80 182.68 584.73 184.93Q589.65 187.18 593.26 191.77Q596.87 196.37 598.92 203.39Q600.96 210.41 600.96 220ZM588.08 220L588.08 220Q588.08 212.07 586.92 206.87Q585.76 201.67 583.82 198.59Q581.87 195.51 579.35 194.27Q576.82 193.03 574.10 193.03L574.10 193.03Q571.42 193.03 568.92 194.27Q566.42 195.51 564.50 198.59Q562.58 201.67 561.45 206.87Q560.31 212.07 560.31 220L560.31 220Q560.31 227.93 561.45 233.13Q562.58 238.33 564.50 241.41Q566.42 244.49 568.92 245.73Q571.42 246.97 574.10 246.97L574.10 246.97Q576.82 246.97 579.35 245.73Q581.87 244.49 583.82 241.41Q585.76 238.33 586.92 233.13Q588.08 227.93 588.08 220Z" fill="#999999"/></svg>