<svg width="214" height="314" viewBox="0 0 214 314" fill="none" xmlns="http://www.w3.org/2000/svg">
    <path d="M4.10027 109.692C4.1052 106.726 4.02626 103.779 3.45417 100.843C3.19771 99.5068 3.21746 98.0336 3.47392 96.693C4.0756 93.5845 4.15942 90.4612 4.19394 87.3233C4.21367 85.3934 4.35672 83.5028 5.32336 81.7497C6.19136 80.1685 6.2061 78.4054 6.25048 76.6572C6.2998 74.747 6.36904 72.8417 6.44795 70.9314C6.45288 70.8184 6.71902 70.5974 6.75354 70.617C7.01493 70.7693 7.4293 70.9412 7.46875 71.1622C7.60685 72.0068 7.67597 72.8711 7.67104 73.7305C7.67104 74.7666 7.53293 75.8028 7.52799 76.839C7.52306 77.7426 8.61793 78.209 9.50073 77.7572C10.492 77.2514 11.4093 76.5394 11.3205 75.4148C11.074 72.4291 11.7446 69.5367 12.0208 66.6148C12.3809 62.7894 12.5634 58.9591 12.4895 55.1287C12.3957 50.2278 13.0171 45.4054 13.747 40.5831C13.7667 40.4604 13.9885 40.2836 14.1118 40.2885C14.2548 40.2935 14.4817 40.4407 14.5212 40.5684C15.8479 45.3514 15.9366 50.2229 15.2511 55.0845C14.7628 58.5711 14.6445 62.0086 15.1475 65.4903C15.3202 66.6787 15.3448 67.9359 15.1673 69.1243C14.7974 71.5551 14.827 73.9858 14.8073 76.4264C14.758 82.5256 14.6791 88.6247 14.5804 94.7238C14.5558 96.1135 14.3979 97.5032 14.2845 98.893C14.0724 101.496 13.8406 104.098 13.6384 106.701C13.5595 107.742 13.6583 108.813 13.4659 109.829C12.667 114.141 12.7705 118.502 12.6176 122.857C12.5239 125.465 12.2132 128.063 12.0208 130.67C11.9074 132.232 11.789 133.798 11.7446 135.365C11.6608 138.154 11.6461 140.943 11.577 143.728C11.5326 145.471 11.6114 147.234 11.355 148.948C10.4081 155.356 10.6004 161.814 10.3686 168.252C10.3242 169.47 10.423 170.712 10.2109 171.906C9.47111 176.055 9.59427 180.239 9.57948 184.418C9.55482 191.912 9.40685 199.41 9.5696 206.899C9.71756 213.681 9.63369 220.482 10.2798 227.249C10.3932 228.462 10.3835 229.685 10.3835 230.908C10.4329 249.21 10.4822 267.507 10.5068 285.81C10.5118 288.245 10.4525 290.691 10.2651 293.122C10.0185 296.294 9.15539 299.29 7.16292 301.868C6.71906 302.442 6.19126 302.909 5.47121 302.992C4.25798 303.13 3.03987 303.189 1.8217 303.262C1.32359 303.292 0.815606 302.708 0.958629 302.172C1.27427 300.984 1.37799 299.82 1.2399 298.573C1.0081 296.5 0.874971 294.403 0.89963 292.321C0.973608 285.878 0.835285 279.426 1.77233 273.012C2.02386 271.298 1.91552 269.536 1.94018 267.792C1.9895 264.306 1.93514 260.819 2.07817 257.337C2.18667 254.73 2.50225 252.176 1.40245 249.632C0.943786 248.572 1.07203 247.236 1.05231 246.018C0.998055 242.88 1.0229 239.742 0.993306 236.604C0.978511 235.038 1.06221 233.447 0.845207 231.905C0.312568 228.094 -0.0523978 224.313 0.835333 220.492C1.06713 219.505 0.795965 218.41 0.800897 217.369C0.805829 215.802 0.8058 214.236 0.894573 212.674C1.00801 210.764 1.48643 209.821 2.04373 210.16C2.99064 210.735 2.67988 211.663 2.72427 212.503C2.73906 212.822 2.87708 213.146 3.01517 213.44C3.04969 213.514 3.32101 213.534 3.45417 213.485C3.60212 213.436 3.79447 213.298 3.82406 213.165C4.15942 211.82 4.54418 210.484 4.76612 209.119C4.94366 208.029 4.15943 207.115 2.97086 206.968C2.62563 206.924 2.27554 206.89 1.93031 206.836C0.948872 206.673 0.361886 206.06 0.228727 205.117C0.0857033 204.086 0.0315012 203.035 0.0315012 201.993C0.0117739 192.756 -0.0227586 183.519 0.0216279 174.282C0.0314916 172.023 0.342284 169.769 0.480376 167.51C0.65299 164.731 0.840352 161.947 0.924193 159.167C1.01297 156.206 1.13627 153.264 1.55055 150.313C1.93523 147.563 1.92532 144.754 1.99436 141.97C2.08314 138.311 2.04859 134.658 2.71439 131.029C2.96592 129.668 2.96101 128.254 2.99061 126.859C3.06951 123.201 3.18303 119.557 3.81924 115.928C4.17927 113.91 4.02629 111.779 4.10027 109.692ZM6.33429 104.393C6.43786 104.889 6.5168 105.577 6.74367 106.215C6.82751 106.441 7.25183 106.578 7.54774 106.681C7.67104 106.726 7.92735 106.627 8.01612 106.514C8.32683 106.112 8.77065 105.704 8.8397 105.247C9.02218 104.064 8.76569 102.748 9.17997 101.677C9.80138 100.057 9.61406 98.6769 8.89894 97.2037C8.57837 96.5408 8.82005 95.8484 9.28857 95.2788C9.8508 94.5962 10.27 93.8792 10.2453 92.9462C10.2256 92.2439 9.60916 91.3796 9.06173 91.5613C8.61786 91.7086 8.15434 92.0426 7.89788 92.4256C7.62663 92.8332 7.53287 93.393 7.46875 93.8988C7.15805 96.2952 6.87188 98.6965 6.60063 101.098C6.48226 102.129 6.42799 103.165 6.33429 104.393ZM7.08899 112.383C7.00515 112.668 6.78325 113.006 6.87202 113.222C7.01504 113.571 7.39473 113.571 7.66598 113.286C7.75968 113.188 7.80406 112.982 7.7794 112.839C7.71529 112.442 7.46874 112.294 7.08899 112.383ZM10.7633 82.7613C10.7337 82.9087 10.6449 83.0854 10.6843 83.218C10.8372 83.714 11.0641 83.7189 11.2367 83.2327C11.2861 83.1002 11.2367 82.8938 11.1578 82.771C11.1134 82.7121 10.9014 82.7613 10.7633 82.7613ZM5.31348 194.608C5.34801 194.225 5.1656 194.009 4.77599 194.048C4.67242 194.058 4.52925 194.259 4.50459 194.392C4.43555 194.775 4.6379 194.996 5.02258 194.942C5.13601 194.932 5.21978 194.726 5.31348 194.608Z" fill="white"/>
    <path d="M178.47 2.6183C181.094 2.62321 183.708 2.58401 186.292 1.97017C187.471 1.69026 188.714 1.60675 189.932 1.57729C191.86 1.52818 193.774 1.40538 195.653 0.929039C197.926 0.354485 200.165 0.595101 202.375 1.28751C204.21 1.86207 206.044 2.43664 207.874 3.02593C208.565 3.24691 208.772 3.84597 208.269 4.70044C207.899 5.32901 207.721 5.88401 207.731 6.63044C207.751 7.97597 207.154 8.61929 206.01 8.72732C204.792 8.84518 203.564 8.99738 202.35 8.93845C197.922 8.72729 193.67 9.72419 189.404 10.6867C187.875 11.0304 186.342 11.4428 184.783 11.5705C180.596 11.9192 176.468 12.6214 172.325 13.2991C168.192 13.9768 164.025 14.468 159.863 14.9934C158.117 15.2144 156.366 15.1112 154.645 14.7184C153.264 14.4041 151.873 14.242 150.487 14.5907C148.08 15.1898 145.639 15.2192 143.188 15.1701C140.895 15.1259 138.646 15.2929 136.555 16.388C135.287 17.0509 133.886 17.1737 132.476 17.1836C131.253 17.1885 130.03 17.2179 128.802 17.2179C123.559 17.2179 118.332 17.3063 113.094 17.8464C107.541 18.421 101.938 18.5782 96.3403 18.3719C94.4219 18.2983 92.4936 18.4064 90.5702 18.4358C85.8653 18.5046 81.1355 18.2344 76.4897 19.3C71.4198 19.3638 66.3451 19.4425 61.2752 19.4817C57.7785 19.5063 54.2965 19.6438 50.8097 20.0563C47.8703 20.4049 44.8717 20.4394 41.9028 20.3804C35.5653 20.2528 29.3512 21.068 23.1914 22.4773C22.3431 22.6738 21.4751 22.8603 20.612 22.9193C18.4864 23.0715 16.9032 22.1679 15.8774 20.3018C15.3448 19.3344 15.483 18.1362 16.2227 17.4094C16.4693 17.1639 16.7061 16.8889 17.002 16.7171C18.4569 15.8528 19.3396 14.7282 19.2657 12.9113C19.2163 11.7622 20.0104 11.0107 21.0609 10.5884C21.5442 10.3969 22.0424 10.1906 22.5503 10.0973C26.5057 9.39017 30.4561 8.61432 34.4361 8.0545C36.5026 7.76476 38.6231 7.82858 40.7192 7.7893C44.0432 7.72546 47.3475 7.57812 50.6568 7.16071C53.5961 6.79241 56.585 6.81211 59.5589 6.72863C62.01 6.66479 64.4412 6.5518 66.8726 6.19823C68.939 5.89868 71.05 5.83973 73.146 5.81026C79.0938 5.72678 85.0366 5.75633 90.9844 5.65321C93.2481 5.61392 95.5119 5.35366 97.7756 5.17197C98.8211 5.08848 99.8864 4.74959 100.897 4.87236C105.45 5.42727 109.967 4.62194 114.504 4.65632C116.965 4.67596 119.392 4.72989 121.656 5.91829C122.78 6.50757 124.047 6.4978 125.241 6.09021C127.618 5.27994 130 5.26036 132.481 5.54519C135.258 5.86929 138.059 5.7956 140.841 5.26524C142.379 4.9706 143.957 4.86747 145.526 4.76925C147.104 4.67104 148.672 4.56787 150.157 3.98841C151.325 3.53171 152.524 3.4581 153.767 3.55141C157.096 3.80676 160.4 3.64963 163.68 2.9474C164.503 2.77061 165.455 2.75582 166.24 3.00626C166.812 3.18796 167.211 3.91969 167.67 4.39112C170.185 4.14067 172.616 3.88532 175.048 3.65943C176.286 3.54648 177.464 3.28134 178.515 2.59384L178.47 2.6183ZM137.704 8.64376C140.599 8.50135 142.335 8.49647 144.056 8.30495C145.772 8.11834 147.474 7.76966 149.165 7.42591C149.368 7.38662 149.639 6.89552 149.604 6.65981C149.565 6.40936 149.235 6.08533 148.968 6.00185C147.602 5.57953 146.221 5.81526 144.845 6.0166C143.474 6.21794 142.103 6.64025 140.737 6.62552C136.372 6.58132 132.116 7.43085 127.82 7.94648C127.544 7.98085 127.268 8.23129 127.036 8.42772C126.814 8.61432 127.559 9.15944 128.136 9.31167C129.364 9.64069 130.553 9.53265 131.702 9.06613C133.186 8.46703 134.686 8.23618 136.279 8.53574C137.127 8.69779 138.005 8.6634 137.704 8.64376ZM134.735 13.638C138.853 14.1242 143.001 14.2469 147.143 13.8197C147.617 13.7706 148.061 13.4023 148.504 13.1519C148.909 12.9211 148.86 12.0224 148.436 11.7769C148.145 11.6099 147.844 11.4232 147.523 11.3447C147.193 11.2612 146.808 11.1925 146.497 11.2858C142.67 12.4594 138.734 12.9702 134.735 13.638ZM119.569 7.8532C118.287 7.91704 117.251 7.94644 116.221 8.03483C115.89 8.0643 115.565 8.21661 115.259 8.35902C115.136 8.41795 114.968 8.64384 114.998 8.72732C115.096 9.00723 115.229 9.42946 115.437 9.48839C117.676 10.1071 119.86 9.28218 122.075 9.15941C122.188 9.1545 122.405 8.87954 122.381 8.83043C122.243 8.57507 122.08 8.18214 121.868 8.13794C121.034 7.97098 120.176 7.92195 119.569 7.8532ZM159.315 6.70405C159.966 6.57637 160.331 6.58125 160.612 6.42902C160.869 6.29643 161.189 6.00677 161.204 5.76614C161.219 5.53043 160.938 5.12286 160.706 5.0492C159.399 4.63179 158.053 4.62196 156.711 4.92152C156.563 4.95589 156.322 5.15226 156.336 5.22592C156.405 5.52547 156.499 6.00179 156.691 6.06072C157.648 6.36027 158.635 6.54691 159.315 6.70405ZM120.595 14.517C120.595 14.5022 120.595 14.4876 120.595 14.4728C121.113 14.4728 121.641 14.517 122.154 14.4581C122.573 14.409 122.721 14.0947 122.553 13.7362C122.489 13.5987 122.321 13.471 122.178 13.4219C121.32 13.1469 120.447 13.1715 119.629 13.5153C119.407 13.6086 119.298 13.9916 119.175 14.2617C119.165 14.2814 119.416 14.4876 119.559 14.5072C119.9 14.5416 120.25 14.517 120.595 14.517ZM98.2738 16.0049C98.6881 16.0049 99.0432 16.0786 99.344 15.9853C99.6103 15.9018 99.8125 15.6367 100.044 15.4501C99.8519 15.2144 99.6843 14.8116 99.4574 14.7674C98.836 14.6496 98.1752 14.63 97.5439 14.6987C97.3713 14.7184 97.2133 15.1652 97.1196 15.4402C97.0949 15.5139 97.2825 15.7349 97.4108 15.784C97.7116 15.892 98.042 15.946 98.2738 16.0049ZM70.2312 15.5089C69.9008 15.5384 69.531 15.4844 69.2499 15.617C68.9934 15.7348 68.6925 16.0295 68.6481 16.2849C68.5889 16.6483 68.9242 16.8545 69.3385 16.7858C69.664 16.7318 69.9896 16.6384 70.3003 16.5255C70.6949 16.3782 70.8331 16.0835 70.6456 15.7496C70.5766 15.6268 70.3693 15.5875 70.2312 15.5089ZM34.584 17.6845C34.8552 17.8121 35.1215 18.0331 35.3977 18.0429C35.8563 18.0577 36.32 17.9398 36.7836 17.8759C36.0586 17.5027 35.3435 17.1983 34.584 17.6845ZM89.9044 9.59653C90.0523 9.62599 90.22 9.70943 90.368 9.67506C90.506 9.64559 90.6145 9.49825 90.7378 9.40494C90.6195 9.30673 90.516 9.15446 90.3829 9.12008C90.2399 9.08571 90.0377 9.11525 89.9193 9.19873C89.8503 9.24293 89.9044 9.45412 89.9044 9.59653ZM61.2554 16.8103L61.5906 16.7219L61.344 16.5353L61.2554 16.8103ZM159.897 10.3969L160.208 10.5884L160.252 10.2791L159.897 10.3969Z" fill="white"/>
    <path d="M170.076 296.442C173.765 297.08 177.385 296.451 181.01 295.857C183.59 295.435 186.08 294.507 188.734 294.561C188.882 294.566 189.064 294.683 189.153 294.806C189.237 294.924 189.291 295.16 189.227 295.268C188.674 296.166 188.038 297.036 186.983 297.35C185.474 297.792 183.95 298.185 182.406 298.494C180.695 298.833 178.988 299.147 177.395 299.864C177.642 300.616 178.209 300.449 178.693 300.473C179.531 300.517 180.394 300.011 181.203 300.561C181.287 300.62 181.316 300.945 181.262 300.984C180.853 301.269 180.438 301.657 179.975 301.745C176.547 302.423 173.124 303.184 169.667 303.64C165.514 304.186 161.382 305.055 157.155 304.848C151.986 305.865 146.714 305.698 141.496 306.15C140.456 306.238 139.41 306.243 138.365 306.253C137.492 306.258 136.584 306.047 135.756 306.219C132.299 306.931 128.797 306.808 125.305 307.004C123.574 307.103 121.863 307.549 120.142 307.854C118.075 308.222 116.038 308.473 113.893 308.217C111.471 307.928 109.001 307.972 106.554 308.021C104.991 308.05 103.413 308.232 101.874 308.537C97.9237 309.312 93.9929 310.177 89.929 310.059C89.7564 310.054 89.5741 310.059 89.4065 310.098C84.0702 311.331 78.6056 310.864 73.2101 311.306C72.1794 311.39 71.1191 311.267 70.0834 311.169C69.7875 311.139 69.5162 310.854 69.235 310.687C69.4175 310.462 69.5509 310.108 69.7827 310.024C71.7751 309.307 73.8415 309.037 75.9621 308.983C77.1458 308.954 78.4134 309.263 79.5033 308.463C79.2074 308.316 78.9113 308.046 78.6253 308.055C76.1791 308.124 73.7084 308.05 71.3017 308.399C68.6928 308.777 66.0936 308.959 63.4649 308.998C59.9683 309.047 56.4912 309.283 53.0093 309.735C49.9023 310.137 46.7312 310.044 43.5847 310.103C40.2606 310.167 36.9118 309.897 33.6223 310.245C28.0493 310.84 22.4862 311.287 16.8836 311.267C15.0934 311.262 13.4906 312.038 11.794 312.416C11.005 312.588 9.91487 311.763 9.91981 310.987C9.92474 310.294 9.9792 309.602 10.0137 308.91C10.2307 304.259 13.0172 302.58 16.9824 301.789C17.9983 301.588 19.0735 301.676 20.124 301.603C22.9105 301.401 25.697 301.165 28.4884 300.969C30.2342 300.851 31.9799 300.743 33.7258 300.704C37.2225 300.625 40.7242 300.645 44.2209 300.522C46.4895 300.444 48.7483 300.164 51.012 300.002C53.4533 299.825 55.8946 299.697 58.3359 299.52C60.7771 299.348 63.2134 299.132 65.6546 298.965C68.2685 298.789 70.8873 298.587 73.5061 298.509C76.3074 298.425 79.0841 298.268 81.8657 297.87C84.4499 297.502 87.0933 297.477 89.7121 297.433C92.3407 297.389 94.93 297.114 97.5389 296.859C103.275 296.304 108.976 295.278 114.771 295.4C117.222 295.454 119.668 295.341 122.085 294.841C122.425 294.767 122.775 294.683 123.12 294.683C130.119 294.625 137.023 293.127 144.031 293.338C150.709 293.539 157.298 292.699 163.872 291.717C168.049 291.089 172.242 291.162 176.439 291.27C177.469 291.295 178.184 291.811 178.022 292.292C177.834 292.847 177.395 293.073 176.902 293.21C176.226 293.397 175.531 293.505 174.86 293.691C173.854 293.976 172.848 294.276 171.862 294.629C170.984 294.944 170.506 295.685 170.116 296.481C169.973 296.579 169.835 296.672 169.692 296.771C169.82 296.667 169.948 296.554 170.076 296.442ZM127.007 304.804C127.317 304.785 127.633 304.775 127.944 304.741C128.407 304.691 128.536 304.49 128.255 304.244C128.181 304.181 127.939 304.24 127.816 304.308C127.549 304.465 127.303 304.662 127.051 304.844L127.007 304.804ZM111.269 305.89C108.369 305.939 105.464 305.973 102.564 306.057C102.091 306.071 101.992 306.376 102.412 306.803C104.281 307.044 106.323 307.049 108.345 306.788C109.331 306.661 110.273 306.169 111.235 305.84C112.611 305.914 113.987 305.998 115.363 306.047C115.496 306.052 115.708 305.88 115.752 305.742C115.885 305.345 115.683 305.104 115.244 305.035C113.814 304.829 112.487 305.104 111.269 305.89ZM76.6131 303.798C74.591 303.262 72.5739 302.698 70.4483 302.87C69.7578 302.924 69.0576 303.002 68.3968 303.184C68.1305 303.258 67.8198 303.626 67.7803 303.896C67.7556 304.068 68.1994 304.495 68.4213 304.485C70.325 304.387 72.219 304.303 74.1375 304.461C74.9266 304.524 75.765 303.994 76.5837 303.739C77.8758 304.279 79.1777 304.534 80.5241 303.915C80.9088 303.739 81.0815 303.488 80.9089 303.145C80.8497 303.022 80.6375 302.933 80.4846 302.904C79.0692 302.668 77.7868 303.017 76.6131 303.798ZM114.337 301.765C114.337 301.686 114.337 301.612 114.337 301.534C115.728 301.534 117.123 301.554 118.514 301.529C121.483 301.485 124.378 300.94 127.239 300.193C127.372 300.159 127.574 299.918 127.549 299.83C127.46 299.53 127.352 299.088 127.13 298.995C125.276 298.249 123.323 298.489 121.473 298.858C118.203 299.506 114.919 299.692 111.605 299.643C111.087 299.638 110.559 299.702 110.051 299.795C109.716 299.854 109.356 299.967 109.094 300.173C108.858 300.36 108.591 300.709 108.606 300.969C108.621 301.244 108.951 301.72 109.158 301.725C110.88 301.794 112.606 301.765 114.337 301.765ZM148.12 298.666C146.601 298.504 145.762 298.455 144.939 298.322C144.095 298.185 143.272 297.89 142.424 297.821C141.59 297.748 140.727 297.821 139.894 297.939C139.657 297.974 139.317 298.366 139.302 298.607C139.287 298.843 139.622 299.299 139.825 299.314C141.358 299.422 142.897 299.486 144.431 299.481C145.442 299.476 146.487 299.643 148.12 298.666ZM135.504 298.617C135.238 298.425 134.898 298.023 134.488 297.929C133.724 297.757 133.107 298.224 132.984 298.887C132.861 299.53 133.492 300.115 134.232 300.046C134.996 299.977 135.544 299.452 135.504 298.617ZM155.863 298.44C157.446 298.44 157.969 298.484 158.482 298.425C158.787 298.391 159.074 298.195 159.369 298.072C159.103 297.9 158.852 297.595 158.576 297.571C157.042 297.438 155.498 297.37 153.959 297.301C153.87 297.296 153.703 297.537 153.698 297.669C153.688 297.812 153.802 298.077 153.9 298.096C154.891 298.298 155.902 298.45 155.863 298.44ZM94.3284 307.397C90.6246 306.852 90.6244 306.852 89.3224 307.815C90.9993 307.888 92.479 307.986 93.9585 307.711C94.0868 307.687 94.1903 307.515 94.3284 307.397ZM146.571 303.685C147.641 303.685 147.992 303.744 148.302 303.665C148.574 303.601 148.806 303.38 149.052 303.228C148.766 303.095 148.495 302.884 148.199 302.845C147.711 302.776 147.198 302.762 146.709 302.83C146.453 302.865 146.221 303.12 145.98 303.277C146.256 303.415 146.527 303.577 146.813 303.685C146.966 303.744 147.148 303.714 146.571 303.685ZM89.8898 302.933C89.8306 302.781 89.8107 302.57 89.7022 302.491C89.066 302.049 88.5433 302.108 87.8381 302.707C87.7394 302.791 87.6704 303.086 87.7345 303.169C88.0995 303.636 88.647 303.655 89.15 303.523C89.4262 303.444 89.6432 303.14 89.8898 302.933ZM98.8904 301.843C98.4465 301.671 98.0124 301.421 97.5488 301.352C97.2825 301.313 96.9769 301.568 96.6908 301.691C96.8831 301.927 97.0459 302.32 97.2777 302.369C97.7413 302.462 98.2491 302.383 98.7324 302.334C98.7817 302.325 98.8164 302.074 98.8904 301.843ZM156.435 301.789C156.252 301.804 156.09 301.819 155.922 301.828C155.488 301.848 155.276 302.04 155.38 302.379C155.414 302.491 155.626 302.575 155.769 302.624C155.922 302.678 156.105 302.722 156.253 302.688C156.706 302.58 157.15 302.428 157.599 302.295C157.397 301.681 156.859 301.848 156.435 301.789ZM134.991 304.736C135.346 304.736 135.687 304.76 136.022 304.731C136.461 304.691 136.653 304.456 136.506 304.132C136.451 304.014 136.244 303.915 136.091 303.896C135.756 303.847 135.406 303.798 135.08 303.857C134.774 303.915 134.493 304.117 134.207 304.254C134.474 304.416 134.74 304.578 134.991 304.736ZM164.474 296.805C164.637 296.451 164.553 296.132 164.173 296.004C163.882 295.906 163.492 295.837 163.246 295.955C162.915 296.112 162.92 296.495 163.196 296.775C163.616 297.207 164.178 297.207 164.474 296.805ZM170.363 301.185C170.091 301.057 169.82 300.832 169.549 300.832C169.278 300.832 169.006 301.062 168.735 301.19C169.001 301.318 169.273 301.554 169.539 301.549C169.815 301.549 170.086 301.318 170.363 301.185ZM104.7 299.707C104.813 299.761 104.947 299.874 105.03 299.85C105.109 299.825 105.144 299.643 105.193 299.535C105.08 299.481 104.947 299.368 104.863 299.398C104.784 299.422 104.754 299.594 104.7 299.707ZM63.4698 305.482L63.6622 305.207L63.2824 305.202L63.4698 305.482Z" fill="white"/>
    <path d="M203.036 257.632C203.702 256.954 203.509 256.232 203.514 255.574C203.578 241.638 203.628 227.696 203.672 213.76C203.687 209.581 203.475 205.397 204.17 201.242C204.338 200.231 204.328 199.145 204.16 198.129C203.766 195.693 203.786 193.287 204.096 190.841C204.249 189.648 204.037 188.411 204.072 187.198C204.101 186.147 204.333 185.111 204.989 184.251C205.157 184.03 205.586 183.848 205.847 183.898C206.118 183.952 206.493 184.276 206.538 184.536C207.011 187.109 207.277 189.702 207.016 192.324C206.789 194.588 206.917 196.837 207.095 199.106C207.253 201.173 207.051 203.27 207.164 205.348C207.277 207.43 207.731 209.497 207.761 211.574C207.81 214.879 207.632 218.189 207.558 221.494C207.534 222.712 207.514 223.935 207.544 225.152C207.638 229.331 207.82 233.511 207.849 237.69C207.914 246.75 207.849 255.81 207.953 264.87C208.002 269.256 207.499 273.567 206.73 277.854C205.951 282.176 204.161 286.163 202.346 290.131C201.971 290.951 201.295 291.624 200.422 291.791C198.548 292.154 196.639 292.38 194.741 292.591C194.538 292.616 194.095 292.164 194.075 291.914C193.907 289.316 193.759 286.713 194.356 284.135C195.066 281.081 195.663 277.997 196.432 274.962C197.123 272.236 197.414 269.482 197.409 266.683C197.404 262.847 197.389 259.017 197.448 255.182C197.483 252.746 197.665 250.315 197.734 247.884C197.769 246.671 197.803 245.444 197.675 244.24C197.453 242.144 197.409 240.071 197.897 238.004C198.267 236.433 198.208 234.881 197.478 233.412C196.595 231.64 196.432 229.754 196.427 227.819C196.422 221.199 196.413 214.575 196.358 207.955C196.334 205.141 196.812 202.406 197.478 199.69C197.774 198.477 197.937 197.314 197.108 196.204C196.452 195.325 196.413 194.249 196.408 193.198C196.398 190.409 196.442 187.625 196.418 184.836C196.398 182.67 196.876 180.715 198.395 179.056C199.026 178.368 199.046 177.465 198.558 176.625C198.297 176.173 197.981 175.756 197.69 175.319C196.985 174.268 196.704 173.109 196.758 171.847C196.886 168.719 197.029 165.585 197.118 162.457C197.236 158.278 197.325 154.104 197.389 149.925C197.448 146.095 197.433 142.279 198.075 138.464C198.474 136.077 198.331 133.602 198.42 131.166C198.548 127.694 198.198 124.203 198.829 120.751C198.868 120.525 199.382 120.161 199.564 120.22C200.955 120.647 202.212 121.458 202.474 122.916C203.08 126.324 203.889 129.708 203.051 133.263C202.577 135.267 202.661 137.413 202.631 139.5C202.597 142.117 202.444 144.705 202.089 147.308C201.379 152.503 201.581 157.738 201.862 162.958C201.956 164.702 201.976 166.42 201.862 168.164C201.65 171.464 201.601 174.778 201.581 178.083C201.547 183.136 201.596 188.19 201.601 193.243C201.601 194.637 201.65 196.037 201.537 197.422C201.28 200.55 201.093 203.653 201.497 206.796C201.788 209.065 201.266 211.231 200.343 213.396C199.155 216.195 198.977 219.147 200.698 221.907C201.275 222.83 201.532 223.817 201.556 224.877C201.591 226.272 201.571 227.667 201.606 229.057C201.685 232.19 201.576 235.323 202.158 238.436C202.375 239.605 202.281 240.872 202.104 242.06C201.66 245.021 201.709 247.948 202.203 250.899C202.489 252.608 202.513 254.362 202.691 256.095C202.735 256.596 202.903 257.067 203.036 257.632ZM199.278 153.058C199.169 152.94 199.066 152.818 198.957 152.7C198.854 152.823 198.676 152.936 198.657 153.073C198.583 153.564 198.795 153.751 199.179 153.54C199.273 153.485 199.248 153.225 199.278 153.058ZM200.678 138.316L200.338 138.562L200.703 138.739L200.678 138.316Z" fill="white"/>
    <path d="M199.16 109.603C199.303 106.107 199.431 102.64 199.589 99.1778C199.628 98.3136 199.766 97.4493 199.87 96.585C200.111 94.5176 200.378 92.4502 200.605 90.3779C200.708 89.4252 201.058 88.7376 202.114 88.5903C202.888 88.4823 203.347 87.9912 203.564 87.2693C203.717 86.7685 203.85 86.2675 203.983 85.7617C204.318 84.4997 204.185 83.2868 203.204 82.3783C200.526 79.8935 201.009 79.2305 202.326 76.4756C202.849 75.3805 203.465 74.3296 203.978 73.3622C204.062 71.6483 202.898 70.293 203.263 68.6283C203.386 68.0783 202.898 67.3269 202.548 66.7573C202.05 65.9568 201.966 65.1416 202.138 64.2626C202.843 60.6827 203.726 57.1322 203.79 53.4443C203.8 52.8206 204.165 52.0202 204.639 51.6273C205.655 50.7778 206.079 49.7956 206.281 48.5188C206.691 45.9308 206.942 43.3479 206.873 40.7305C206.784 37.4206 206.947 34.15 207.499 30.8599C207.928 28.3063 207.82 25.6644 207.968 23.0617C207.978 22.9193 208.145 22.6786 208.264 22.6639C208.683 22.6099 208.885 22.8603 208.984 23.2728C210.019 27.7269 210.34 32.1711 209.378 36.7135C208.949 38.7269 208.969 40.8581 208.964 42.9354C208.959 46.2452 208.959 49.5403 208.229 52.801C208.002 53.8127 207.997 54.8733 207.918 55.9094C207.869 56.6019 207.923 57.3041 207.849 57.9965C207.514 61.105 206.986 64.1987 206.843 67.3121C206.71 70.2684 206.577 73.1953 206.148 76.1368C205.773 78.7002 205.827 81.3372 205.788 83.9448C205.739 87.2497 205.768 90.5497 205.063 93.8105C204.811 94.989 204.841 96.2314 204.762 97.4443C204.693 98.4854 204.747 99.5462 204.565 100.568C203.958 104.005 203.697 107.467 203.682 110.949C203.682 111.46 203.569 111.995 203.386 112.471C203.278 112.756 202.957 112.977 202.686 113.164C202.587 113.232 202.291 113.168 202.197 113.065C201.167 111.916 200.156 110.747 199.16 109.603Z" fill="white"/>
    <path d="M204.747 167.309C204.816 163.101 204.743 159.275 205.571 155.499C205.867 154.163 205.768 152.729 205.778 151.339C205.813 147.514 205.842 143.689 205.818 139.863C205.793 136.553 205.887 133.273 206.543 130.002C206.917 128.141 206.848 126.197 207.001 124.291C207.031 123.947 207.09 123.579 207.253 123.289C207.401 123.024 207.692 122.7 207.948 122.671C208.175 122.646 208.643 122.975 208.663 123.176C209.013 126.639 209.27 130.091 208.141 133.499C207.82 134.461 207.711 135.547 207.746 136.563C207.82 138.483 207.78 140.374 207.559 142.289C207.42 143.482 207.519 144.715 207.632 145.918C207.909 148.874 207.928 151.816 207.494 154.762C207.342 155.784 207.203 156.859 207.351 157.866C207.628 159.791 207.623 161.662 207.159 163.552C206.824 164.927 207.026 166.322 207.322 167.692C207.771 169.75 207.864 171.827 207.716 173.919C207.682 174.43 207.568 174.955 207.371 175.427C207.253 175.711 206.888 176.099 206.656 176.085C206.187 176.055 205.63 175.898 205.305 175.589C204.649 174.96 204.476 174.061 204.501 173.182C204.565 171.09 204.673 169.003 204.747 167.309Z" fill="white"/>
    <path d="M26.6734 312.288C28.0592 312.244 29.445 312.195 30.8259 312.165C33.9675 312.092 37.0992 311.969 40.2162 311.424C42.6229 311.002 45.074 310.874 47.5104 311.336C48.117 311.449 48.6595 311.969 48.5066 312.333C48.2748 312.873 47.7965 313.015 47.2934 313.084C46.7756 313.153 46.2528 313.182 45.73 313.202C44.8571 313.226 43.9841 313.226 43.1112 313.241C42.5884 313.251 42.0606 313.226 41.5428 313.275C38.9585 313.521 36.4483 314.38 33.7605 313.806C31.403 313.305 28.9716 313.158 26.5698 312.853C26.6043 312.662 26.6388 312.475 26.6734 312.288Z" fill="white"/>
    <path d="M207.736 95.8877C207.835 95.3033 207.899 94.2524 208.205 93.2752C208.52 92.2636 209.319 91.5662 210.315 91.1635C210.404 91.1242 210.69 91.2912 210.71 91.3992C210.804 91.9001 210.937 92.4207 210.883 92.9118C210.666 94.768 209.778 96.5162 209.965 98.4462C209.975 98.5493 209.729 98.7702 209.605 98.7702C209.275 98.7702 208.856 98.785 208.629 98.6033C207.81 97.9502 207.618 97.3756 207.736 95.8877Z" fill="white"/>
    <path d="M212.298 74.9778C212.12 76.3381 211.948 77.7033 211.745 79.0635C211.731 79.1667 211.474 79.2943 211.331 79.2943C211.203 79.2943 210.961 79.1323 210.961 79.039C210.892 76.2988 210.833 73.5537 210.833 70.8135C210.833 70.6613 211.395 70.3862 211.686 70.401C211.982 70.4157 212.352 70.6563 212.52 70.9117C212.693 71.172 212.742 71.5747 212.702 71.8988C212.574 72.9251 212.377 73.9465 212.209 74.968C212.239 74.968 212.268 74.9729 212.298 74.9778Z" fill="white"/>
    <path d="M62.7496 311.036C60.5352 311.728 58.2766 312.406 55.8403 311.895C55.7268 311.871 55.5787 311.66 55.5787 311.537C55.5738 311.39 55.6773 311.164 55.7957 311.105C58.0298 310.02 60.3529 309.823 62.7448 310.456C62.7794 310.461 62.7496 310.712 62.7496 311.036Z" fill="white"/>
    <path d="M6.27028 63.0301C6.33439 62.6912 6.3542 62.3376 6.48243 62.0233C6.63039 61.6403 6.96079 61.5323 7.31588 61.7042C7.45397 61.773 7.64134 61.9497 7.6364 62.0725C7.59695 62.7453 7.55259 63.4181 7.41943 64.0761C7.34052 64.4886 6.99527 64.636 6.65004 64.469C6.52181 64.4052 6.40847 64.2136 6.37888 64.0614C6.30984 63.7176 6.3048 63.3738 6.27028 63.0301Z" fill="white"/>
    <path d="M208.348 102.252C208.239 102.502 208.126 102.753 208.017 102.998C207.815 102.822 207.588 102.66 207.421 102.453C207.381 102.404 207.504 102.154 207.613 102.07C207.918 101.825 208.175 101.903 208.348 102.252Z" fill="white"/>
    <path d="M6.79824 41.0153C6.91168 41.2903 7.11863 41.5702 7.10384 41.8354C7.08904 42.0907 6.84735 42.3314 6.70433 42.5818C6.59089 42.3068 6.38887 42.0319 6.39874 41.7618C6.41353 41.5064 6.65522 41.2609 6.79824 41.0153Z" fill="white"/>
    <path d="M213.082 47.3108L213.393 47.5907L213.013 47.7184L213.082 47.3108Z" fill="white"/>
    <path d="M6.77833 53.2823C6.67477 53.1595 6.5169 53.0515 6.48238 52.914C6.44785 52.7667 6.47247 52.4917 6.56618 52.4426C6.94593 52.2314 7.15296 52.4229 7.07405 52.9091C7.04939 53.0417 6.87697 53.1546 6.77833 53.2823Z" fill="white"/>
    <path d="M209.245 106.829C209.388 106.829 209.605 106.775 209.649 106.838C209.733 106.956 209.783 107.172 209.733 107.305C209.551 107.791 209.319 107.786 209.156 107.29C209.117 107.158 209.216 106.976 209.245 106.829Z" fill="white"/>
    <path d="M205.596 40.3474C205.532 40.4702 205.487 40.6813 205.393 40.7059C205.043 40.8041 204.871 40.6077 204.94 40.205C204.964 40.0724 205.043 39.8711 205.137 39.8465C205.487 39.7434 205.645 39.9398 205.596 40.3474Z" fill="white"/>
    <path d="M4.53426 59.4648L4.83527 59.5582L4.62793 59.8135L4.53426 59.4648Z" fill="white"/>
    <path d="M211.731 53.4394L211.42 53.3461L211.632 53.0907L211.731 53.4394Z" fill="white"/>
    <path d="M205.107 34.489L205.369 34.322L205.364 34.6657L205.107 34.489Z" fill="white"/>
    <path d="M212.456 67.0225L212.579 66.6689L212.776 66.9537L212.456 67.0225Z" fill="white"/>
</svg>
