<?xml version="1.0" encoding="UTF-8"?><svg id="Calque_1" xmlns="http://www.w3.org/2000/svg" viewBox="0 0 841.89 595.28"><defs><style>.cls-1{fill:#fff;}</style></defs><path class="cls-1" d="m439.2,574.84c-74.04,0-143.65-28.83-196.01-81.19-52.36-52.36-81.19-121.97-81.19-196.01s28.83-143.65,81.19-196.01S365.16,20.44,439.2,20.44s143.65,28.83,196.01,81.19c52.36,52.36,81.19,121.97,81.19,196.01s-28.83,143.65-81.19,196.01c-52.36,52.36-121.97,81.19-196.01,81.19Zm0-546.64c-148.57,0-269.44,120.87-269.44,269.44s120.87,269.45,269.44,269.45,269.44-120.87,269.44-269.45S587.77,28.19,439.2,28.19Zm0,527.68c-30.86,0-61.12-5.44-89.92-16.18-4.14-1.54-8.36-3.26-12.91-5.24-94.41-41.15-155.41-134.11-155.41-236.82,0-11.5.84-23.4,2.48-35.37.69-5.03,1.45-9.66,2.33-14.15,11.78-60.42,45.11-114.85,93.83-153.28,3.75-2.96,7.59-5.82,11.43-8.52,43.65-30.7,94.89-46.92,148.17-46.92s103.37,15.86,146.68,45.87c3.78,2.62,7.54,5.38,11.49,8.46,49.02,38.11,82.73,92.31,94.94,152.63.89,4.38,1.68,9,2.42,14.1,1.8,12.43,2.71,24.94,2.71,37.18,0,102.71-61.01,195.66-155.4,236.82h0c-4.55,1.98-8.77,3.7-12.92,5.24-28.8,10.73-59.06,16.18-89.92,16.18Zm0-508.73c-51.67,0-101.37,15.74-143.71,45.51-3.72,2.62-7.45,5.4-11.09,8.27-47.27,37.28-79.59,90.08-91.02,148.68-.85,4.35-1.59,8.84-2.26,13.73-1.6,11.62-2.41,23.16-2.41,34.31,0,99.63,59.17,189.79,150.75,229.71,4.42,1.93,8.52,3.59,12.52,5.08,27.94,10.41,57.28,15.69,87.22,15.69s59.28-5.28,87.22-15.69c4.01-1.49,8.11-3.16,12.52-5.08h0c91.57-39.92,150.74-130.09,150.74-229.71,0-11.87-.89-24.01-2.63-36.07-.72-4.96-1.49-9.44-2.34-13.68-11.84-58.5-44.54-111.08-92.09-148.05-3.84-2.99-7.49-5.67-11.15-8.21-42.01-29.1-91.2-44.49-142.26-44.49Z"/><path class="cls-1" d="m220.52,382.4l-1-2.67c-9.85-26.25-14.85-53.87-14.85-82.09,0-8.35.48-16.99,1.43-25.68l.12-1.05,1,.34c10.71,3.68,21.73,5.55,32.76,5.55,4.88,0,9.82-.36,14.67-1.07l.83-.12,9.66,61.11-.79.16c-21.52,4.48-38.48,21.25-43.22,42.73l-.61,2.79Zm-12.85-109.21c-.87,8.28-1.31,16.5-1.31,24.45,0,27.09,4.64,53.62,13.78,78.91,5.59-20.56,22.19-36.49,43.08-41.15l-9.15-57.88c-4.67.64-9.4.97-14.09.97-10.87,0-21.74-1.78-32.31-5.3Z"/><path class="cls-1" d="m390.38,450.34l-14.43-26.08h64.09v13.47h-.85c-16.79,0-33.41,4.22-48.08,12.21l-.74.4Zm-11.56-24.39l12.23,22.1c14.49-7.73,30.81-11.88,47.3-12.02v-10.09s-59.53,0-59.53,0Z"/><path class="cls-1" d="m542.55,141.92l-50.27-17.6.25-.78c1.79-5.55,2.69-11.33,2.69-17.18,0-14.16-5.31-27.68-14.94-38.07l-1.72-1.86,2.5.45c30.78,5.58,59.73,17.14,86.06,34.34l.88.57-.75.74c-10.94,10.81-19.39,24.15-24.42,38.6l-.28.8Zm-48.16-18.66l47.12,16.5c5.03-14.05,13.24-27.05,23.8-37.7-25.21-16.32-52.83-27.44-82.14-33.07,8.88,10.43,13.74,23.61,13.74,37.36,0,5.75-.85,11.43-2.53,16.91Z"/><path class="cls-1" d="m364.31,471.13l-46.91-41.87.55-.63c1.14-1.3,2.22-2.65,3.22-4.02l.25-.35h56.46l13.98,25.27-.75.41c-9.82,5.35-18.65,12.27-26.24,20.57l-.56.62Zm-44.53-42.02l44.42,39.64c7.4-7.96,15.92-14.65,25.37-19.89l-12.68-22.91h-54.6c-.79,1.07-1.63,2.13-2.51,3.16Z"/><path class="cls-1" d="m438.35,293.37v-119.97h38.99l.24.42,41.56,71.98-80.79,47.57Zm1.69-118.28v115.32l76.8-45.22-40.47-70.1h-36.32Z"/><path class="cls-1" d="m536.18,511.1l-.28-.94c-4.31-14.7-12.11-28.47-22.57-39.84l-.58-.63,44.52-39.96.57.6c10.69,11.24,25.11,17.43,40.59,17.43,7.84,0,15.44-1.6,22.59-4.76l3.18-1.4-2.18,2.71c-22.76,28.29-52.14,51.24-84.96,66.38l-.89.41Zm-21.02-41.29c10.12,11.19,17.73,24.62,22.09,38.94,31.24-14.57,59.29-36.27,81.37-62.93-6.45,2.42-13.23,3.64-20.18,3.64-15.68,0-30.29-6.16-41.24-17.37l-42.03,37.72Z"/><path class="cls-1" d="m574.58,293.23l-35.35-61.22,11.75-6.92.43.72c9.33,15.65,22.72,28.5,38.72,37.16l.75.4-16.3,29.86Zm-33.04-60.62l33,57.16,14.04-25.73c-15.69-8.66-28.87-21.31-38.19-36.65l-8.86,5.22Z"/><path class="cls-1" d="m513.9,470.93l-.57-.62c-7.38-8.03-15.94-14.77-25.45-20.03l-.74-.41,13.98-25.61h51.7l.25.35c1.45,1.99,3.05,3.91,4.76,5.71l.6.63-44.54,39.98Zm-24.46-21.72c9.13,5.15,17.39,11.66,24.57,19.34l42.01-37.7c-1.44-1.56-2.8-3.21-4.05-4.9h-49.83l-12.7,23.26Z"/><path class="cls-1" d="m263.48,337.07l-9.68-61.21.85-.12c11.9-1.74,23.28-5.55,33.82-11.35l.74-.41,15.41,27.86-25.38,43.97-.52-.03c-4.81-.24-9.67.13-14.37,1.11l-.87.18Zm-7.74-59.79l9.13,57.78c4.4-.85,8.91-1.18,13.41-.99l24.39-42.25-14.13-25.55c-10.26,5.53-21.28,9.23-32.8,11.01Z"/><path class="cls-1" d="m303.64,293.55l-15.91-28.75.74-.41c16.18-8.89,29.62-22.05,38.86-38.03l.43-.74,11.26,6.63-35.39,61.3Zm-13.61-28.09l13.64,24.65,33.06-57.26-8.35-4.92c-9.24,15.68-22.47,28.63-38.34,37.52Z"/><path class="cls-1" d="m342.22,511.1l-.89-.41c-31.91-14.72-60.65-36.89-83.12-64.12l-1.81-2.19,2.71.85c5.39,1.68,11.01,2.54,16.71,2.54,16.12,0,31.48-6.97,42.13-19.12l.56-.64,46.93,41.89-.58.63c-10.36,11.33-18.1,25.04-22.38,39.64l-.28.94Zm-80.94-63.5c21.83,25.82,49.38,46.92,79.88,61.15,4.33-14.23,11.88-27.59,21.9-38.73l-44.39-39.62c-10.95,12.13-26.51,19.06-42.84,19.06-4.94,0-9.82-.62-14.55-1.85Z"/><path class="cls-1" d="m338.18,233.72l-11.27-6.63.42-.73c8.82-15.25,13.47-32.67,13.47-50.39,0-.45,0-.9-.02-1.35l-.02-1.21h32.23l-34.82,60.31Zm-8.97-7.24l8.35,4.92,32.51-56.3h-27.58c0,.29,0,.58,0,.88,0,17.73-4.59,35.17-13.29,50.5Z"/><path class="cls-1" d="m541.67,353.53l-103.31-60.83v-1.29l79.94-47.07,42.65,73.87-19.28,35.32Zm-101.07-61.48l100.43,59.13,17.99-32.96-41.32-71.57-77.09,45.4Z"/><path class="cls-1" d="m537.24,175.09h-30.87l-21.2-36.72.3-.44c3.04-4.44,5.41-9.29,7.06-14.41l.27-.83,50.31,17.62-.28.8c-3.71,10.64-5.58,21.78-5.58,33.13v.85Zm-29.9-1.69h28.21c.09-10.96,1.9-21.73,5.4-32.04l-47.09-16.49c-1.63,4.8-3.88,9.36-6.7,13.58l20.18,34.95Z"/><path class="cls-1" d="m335,142.24l-.28-.78c-5.23-14.29-13.83-27.46-24.87-38.09l-.76-.73.88-.58c26.66-17.67,56.06-29.51,87.38-35.19l2.49-.45-1.72,1.86c-9.63,10.39-14.94,23.91-14.94,38.08,0,5.99.95,11.91,2.84,17.6l.26.8-51.27,17.5Zm-23.23-39.35c10.66,10.48,19.02,23.31,24.24,37.22l48.13-16.43c-1.77-5.62-2.66-11.44-2.66-17.33,0-13.76,4.86-26.93,13.74-37.37-29.85,5.73-57.91,17.13-83.45,33.91Z"/><path class="cls-1" d="m488.63,450.7l-.74-.41c-14.83-8.21-31.67-12.56-48.69-12.56h-.85v-13.47h64.71l-14.43,26.43Zm-48.59-14.66c16.73.14,33.27,4.4,47.92,12.35l12.25-22.44h-60.17v10.09Z"/><path class="cls-1" d="m478.32,175.09h-39.97v-12.72h.85c9.39,0,18.68-2.37,26.86-6.85l.73-.4,11.53,19.97Zm-38.27-1.69h35.35l-9.24-16.01c-8.01,4.24-17,6.53-26.1,6.66v9.34Z"/><path class="cls-1" d="m440.05,175.09h-39.97l11.53-19.97.73.4c8.19,4.48,17.48,6.85,26.86,6.85h.85v12.72Zm-37.04-1.69h35.35v-9.34c-9.1-.13-18.09-2.43-26.1-6.66l-9.24,16.01Z"/><polygon class="cls-1" points="440.05 293.69 437.26 292.06 440.05 290.41 440.05 293.69"/><path class="cls-1" d="m540.08,233.47l-34.68-60.07h31.85v.85c0,18.19,4.9,36.02,14.17,51.57l.44.73-11.77,6.93Zm-31.75-58.38l32.37,56.06,8.84-5.21c-9.01-15.39-13.83-32.94-13.98-50.85h-27.23Z"/><path class="cls-1" d="m438.93,293.04l-79.81-46.99,41.94-72.64h38.99v118.98l-1.12.66Zm-77.51-47.6l76.93,45.3v-115.64h-36.32l-40.61,70.34Z"/><path class="cls-1" d="m610.95,337.11l-.86-.18c-3.4-.72-6.93-1.12-10.5-1.19h-.48s-25.52-44.22-25.52-44.22l15.8-28.95.74.4c9.69,5.25,20.13,8.84,31.01,10.68l.84.14-11.04,63.31Zm-10.84-3.05c3.21.09,6.39.44,9.48,1.04l10.45-59.92c-10.49-1.86-20.56-5.33-29.96-10.32l-14.54,26.64,24.57,42.56Z"/><path class="cls-1" d="m372.03,175.09h-31.23v-.83c-.2-11.26-2.25-22.3-6.09-32.8l-.3-.81,51.32-17.52.27.81c1.65,4.98,3.97,9.68,6.92,13.99l.3.44-21.2,36.72Zm-29.57-1.69h28.59l20.18-34.96c-2.74-4.08-4.94-8.5-6.55-13.16l-48.08,16.41c3.62,10.17,5.6,20.83,5.86,31.71Z"/><path class="cls-1" d="m364.45,399.97h-33.21l.12-.95c.32-2.49.49-4.94.49-7.29,0-11.1-3.25-21.84-9.39-31.05l-.5-.74,15.34-9.03,27.14,49.06Zm-31.29-1.69h28.42l-24.91-45.03-12.31,7.25c6.01,9.32,9.18,20.1,9.18,31.24,0,2.12-.13,4.32-.38,6.55Z"/><path class="cls-1" d="m516.32,399.97h-77.97v-109.24l104.12,61.31-26.16,47.93Zm-76.27-1.69h75.27l24.89-45.61-100.16-58.98v104.59Z"/><path class="cls-1" d="m654.54,390.55l-.29-3.47c-2.01-24.45-20.18-45.07-44.17-50.15l-.8-.17,11.03-63.25.83.14c5.58.94,11.28,1.42,16.93,1.42,11.07,0,22.13-1.88,32.88-5.59l.99-.34.12,1.04c1.1,9.4,1.66,18.64,1.66,27.45,0,31.03-6.01,61.21-17.85,89.69l-1.34,3.22Zm-43.3-55.1c23.23,5.27,41,24.72,44.33,48.16,10.93-27.37,16.47-56.28,16.47-85.97,0-8.42-.51-17.24-1.53-26.22-10.61,3.55-21.52,5.35-32.43,5.35-5.47,0-10.97-.44-16.38-1.31l-10.46,59.99Z"/><path class="cls-1" d="m543.02,399.97h-28.63l26.63-48.78,12.35,7.27-.54.75c-6.82,9.54-10.42,20.79-10.42,32.52,0,2.35.16,4.8.49,7.29l.12.95Zm-25.78-1.69h23.86c-.26-2.23-.38-4.43-.38-6.55,0-11.78,3.53-23.08,10.2-32.75l-9.26-5.45-24.42,44.75Z"/><path class="cls-1" d="m322.91,361.35l-.44-.67c-4.73-7.09-11.13-13.11-18.52-17.4l-.73-.42,15.13-26.21,19.77,35.74-15.22,8.96Zm-17.38-19.1c7.07,4.25,13.23,10.05,17.9,16.84l12.43-7.32-17.53-31.68-12.8,22.16Z"/><path class="cls-1" d="m336.67,353.25l-19.3-34.89.24-.41,42.36-73.37,80.63,47.48-103.93,61.2Zm-17.36-34.87l18,32.53,99.95-58.86-76.69-45.16-41.27,71.48Z"/><path class="cls-1" d="m552.38,359.84l-12.17-7.17,19.75-36.18,14.27,24.71-.8.4c-8.15,4.08-15.27,10.17-20.59,17.61l-.45.63Zm-9.9-7.79l9.43,5.55c5.25-7.14,12.12-13.03,19.96-17.1l-11.87-20.55-17.52,32.1Z"/><path class="cls-1" d="m440.05,399.97h-77.53l-26.67-48.2,103.08-60.7,1.12.66v108.24Zm-76.53-1.69h74.84v-104.91l-100.23,59.02,25.39,45.89Z"/><path class="cls-1" d="m573.04,340.85c7.65-3.82,16.26-5.99,25.39-5.99.39,0,.78.02,1.17.03l-25.05-43.39-14.58,26.71,13.06,22.63Z"/><polygon class="cls-1" points="517.99 245.5 559.98 318.22 574.56 291.51 540.38 232.31 517.99 245.5"/><path class="cls-1" d="m515.82,399.13l-14.18,25.98h50.77c-5.44-7.49-9.09-16.36-10.34-25.98h-26.24Z"/><polygon class="cls-1" points="439.2 399.13 439.2 425.11 501.64 425.11 515.82 399.13 439.2 399.13"/><polygon class="cls-1" points="439.2 399.13 363.01 399.13 377.39 425.11 439.2 425.11 439.2 399.13"/><polygon class="cls-1" points="360.27 245.74 401.54 174.25 371.54 174.25 337.88 232.55 360.27 245.74"/><polygon class="cls-1" points="360.27 245.74 337.88 232.55 303.65 291.83 318.34 318.37 360.27 245.74"/><path class="cls-1" d="m411.93,156.26c-7.89-4.32-14.64-10.46-19.7-17.85l-20.69,35.84h30l10.38-17.99Z"/><path class="cls-1" d="m466.47,156.26l10.38,17.99h30l-20.69-35.84c-5.06,7.39-11.81,13.53-19.7,17.85Z"/><path class="cls-1" d="m332.2,399.13c-1.25,9.63-4.9,18.49-10.34,25.98h55.53l-14.37-25.98h-30.81Z"/><polygon class="cls-1" points="517.99 245.5 540.38 232.31 506.86 174.25 476.86 174.25 517.99 245.5"/><path class="cls-1" d="m318.34,318.37l-14.68-26.54-24.89,43.11c9.3.47,18.01,3.2,25.61,7.62l13.96-24.18Z"/><polygon class="cls-1" points="639.5 175.84 637.15 175.04 632.48 173.4 637.9 173.4 638.23 173.8 639.5 175.84"/><path class="cls-1" d="m639.04,175.09h-1.67l-.22-.05-83.91-29.38.28-.8c4.76-13.59,12.9-26.03,23.54-35.96l.51-.48.57.42c24.06,17.75,44.28,39.61,60.1,64.97l.81,1.29Zm-83.64-30.47l80.13,28.06c-15.39-24.12-34.83-44.99-57.83-62.07-9.98,9.47-17.67,21.2-22.3,34.01Z"/><path class="cls-1" d="m638.07,263.79c-5,0-10.04-.42-14.98-1.26l-.84-.14,15.56-89.26,1.17,1.9c15.56,25.28,26.04,52.87,31.15,81.98l.12.69-.65.25c-10.25,3.87-20.86,5.84-31.52,5.84Zm-13.86-2.79c4.58.73,9.24,1.1,13.86,1.1,10.24,0,20.42-1.84,30.27-5.48-4.98-27.92-14.95-54.41-29.63-78.78l-14.5,83.17Z"/><path class="cls-1" d="m642.41,175.09h-93.88v-.85c0-10.06,1.68-19.94,4.99-29.38l.28-.8,88.61,31.03Zm-92.18-1.69h82.23l-77.62-27.18c-2.97,8.75-4.52,17.89-4.61,27.18Z"/><path class="cls-1" d="m596.3,253.44l-.74-.4c-14.19-7.69-26.08-19.09-34.38-32.96l-.44-.73,77.45-45.6.86,1.38-42.74,78.31Zm-33.23-33.5c7.97,13.04,19.2,23.81,32.56,31.21l40.52-74.24-73.07,43.03Z"/><path class="cls-1" d="m561.61,220.8l-.43-.72c-8.27-13.83-12.65-29.68-12.65-45.83v-.85h89.05l.52.18.98,1.59-77.47,45.62Zm-11.38-45.7c.15,15.27,4.28,30.24,11.97,43.39l73.69-43.39h-85.67Z"/><path class="cls-1" d="m623.92,262.67l-.83-.14c-9.66-1.63-18.92-4.83-27.53-9.49l-.75-.4,43.21-79.16,1.13,1.84-.05.32-15.18,87.05Zm-26.81-10.72c7.99,4.23,16.54,7.18,25.43,8.77l14.18-81.35-39.61,72.58Z"/><path class="cls-1" d="m440.05,532.16h-.85c-.72,0-1.45-.01-2.17-.02l-1.41-.02-39.76-71.87.75-.41c13-7.08,27.73-10.82,42.59-10.82h.85v83.15Zm-3.42-1.72h.43c.43.01.86.02,1.29.02v-79.75c-14.01.14-27.87,3.66-40.19,10.21l38.46,69.52Z"/><path class="cls-1" d="m439.2,532.16h-.85v-83.15h.85c15.13,0,30.09,3.88,43.28,11.21l.73.41-39,71.46h-.49c-1.5.04-3.01.06-4.51.06Zm.85-81.45v79.76c1.05,0,2.1-.02,3.15-.04l37.73-69.13c-12.51-6.8-26.6-10.45-40.87-10.59Z"/><path class="cls-1" d="m437.57,532.15l-1.86-.02c-.94-.01-1.88-.02-2.82-.05h-.31s-.23-.21-.23-.21l-59.58-53.17.58-.63c6.75-7.35,14.57-13.48,23.25-18.21l.74-.4,40.22,72.71Zm-4.32-1.76c.48.01.96.02,1.44.03l-38-68.69c-7.98,4.45-15.2,10.1-21.5,16.84l58.06,51.82Z"/><path class="cls-1" d="m435.2,532.14l-2.31-.06c-27.29-.73-54.02-6.19-79.44-16.21l-.71-.28.2-.73c3.74-13.6,10.8-26.32,20.41-36.8l.56-.62,61.28,54.7Zm-80.42-17.57c24.31,9.49,49.8,14.79,75.83,15.74l-56.57-50.5c-8.97,9.97-15.61,21.96-19.26,34.75Z"/><path class="cls-1" d="m442.26,532.14l39.47-72.32.74.41c8.36,4.65,15.9,10.59,22.41,17.65l.58.63-59.68,53.56h-.31c-.41.02-.82.03-1.23.03l-1.98.04Zm40.14-70.01l-37.24,68.23,57.9-51.96c-6.06-6.44-13-11.91-20.66-16.27Z"/><path class="cls-1" d="m443.17,532.14l61.15-54.88.57.61c9.69,10.51,16.8,23.3,20.57,36.97l.2.73-.71.28c-25.44,10.03-52.18,15.49-79.48,16.21l-2.3.06Zm61.03-52.5l-56.46,50.67c26.04-.95,51.56-6.25,75.88-15.75-3.67-12.88-10.37-24.92-19.42-34.93Z"/><path class="cls-1" d="m282.25,254.89l-43.56-78.74.54-.89c.12-.2.24-.4.36-.6l.43-.7,77.98,45.91-.42.73c-8.22,14.24-20.19,25.96-34.6,33.89l-.74.41Zm-41.53-78.57l42.19,76.27c13.57-7.63,24.88-18.71,32.79-32.12l-74.98-44.15Z"/><path class="cls-1" d="m252.04,264.7l-13.86-87.69,1.52-2.52,44.03,79.58-.74.41c-9.39,5.16-19.52,8.56-30.12,10.09l-.83.12Zm-11.86-85.84l13.27,83.93c9.82-1.52,19.22-4.67,27.98-9.37l-41.24-74.55Z"/><path class="cls-1" d="m239.98,265.51c-10.66,0-21.26-1.96-31.5-5.83l-.65-.25.11-.69c4.87-29.07,15.1-56.67,30.39-82.01l1.2-1.98,14.18,89.7-.85.12c-4.27.62-8.6.93-12.89.93Zm-30.25-7.17c13.62,5.03,27.93,6.58,42.04,4.68l-13.18-83.4c-14.4,24.41-24.11,50.88-28.86,78.72Z"/><path class="cls-1" d="m329.52,175.09h-90.18l1.59-2.53,82.78-28.25.29.77c3.46,9.33,5.32,19.14,5.51,29.15l.02.86Zm-85.82-1.69h84.09c-.27-9.25-1.98-18.31-5.1-26.96l-78.99,26.96Z"/><path class="cls-1" d="m239.49,174.84l1.28-2.02c15.46-24.52,35.05-45.74,58.23-63.08l.56-.42.52.47c10.67,9.7,18.94,21.91,23.91,35.3l.3.81-84.8,28.94Zm59.96-63.33c-22.13,16.65-40.94,36.89-55.96,60.18l78.6-26.83c-4.82-12.61-12.63-24.11-22.64-33.35Z"/><path class="cls-1" d="m317.16,221.34l-78.02-45.94.45-.73c.1-.16.2-.32.3-.48l.49-.79h89.09l.02,1.03c0,.51.02,1.02.02,1.54,0,15.67-4.13,31.1-11.94,44.63l-.43.74Zm-75.2-46.24l74.59,43.92c7.39-13.09,11.29-27.95,11.29-43.04,0-.29,0-.59,0-.88h-85.87Z"/><path class="cls-1" d="m240.86,174.25c.21-.33.42-.66.62-.98l-2.72.93.09.05h2Z"/><path class="cls-1" d="m238.6,174.25l.46,2.94c.2-.33.4-.67.6-1.01l-1.07-1.93Z"/><path class="cls-1" d="m239.07,177.18l-.46-2.94h-4.14,4.14l.16-.05-4.3-2.53,4.3,2.53,2.72-.93c15.35-24.34,35.05-45.67,58.03-62.86-5.31-4.83-11.15-9.09-17.51-12.52-46.93,37.01-80.56,90.13-92.42,150.98,5.92,4.1,12.37,7.45,19.21,10.03,4.94-29.46,15.41-57.06,30.28-81.71Z"/><path class="cls-1" d="m238.86,174.25l1.46.86c.18-.29.37-.57.54-.86h-2Z"/><path class="cls-1" d="m240.32,175.11l-1.46-.86h-.25l1.07,1.93c.22-.36.43-.72.65-1.07Z"/><polygon class="cls-1" points="238.76 174.19 238.6 174.25 238.86 174.25 238.76 174.19"/><path class="cls-1" d="m638.07,175.15l.29-.52-.45.26c.05.09.11.17.16.26Z"/><path class="cls-1" d="m638.35,174.63l.03-.05-.84-.29c.13.2.25.4.37.61l.45-.26Z"/><path class="cls-1" d="m638.38,174.58l.18-.33h-1.04s.01.02.02.04l.84.29Z"/><path class="cls-1" d="m637.52,174.25h1.04l.38-.69-.38.69h.44l9.07-5.34-9.07,5.34h1.83-1.83l-.58.34h0s-.15.88-.15.88c15.14,24.6,25.86,52.19,31.04,81.69,6.84-2.58,13.29-5.93,19.21-10.04-12.29-60.73-46.3-113.63-93.51-150.34-6.31,3.52-12.11,7.83-17.36,12.73,23.82,17.57,44.18,39.56,59.88,64.73Z"/><path class="cls-1" d="m638.07,175.15c.07.11.13.22.2.32l.15-.88h0s-.06.03-.06.03l-.29.52Z"/><polygon class="cls-1" points="638.35 174.63 638.41 174.59 638.38 174.58 638.35 174.63"/><polygon class="cls-1" points="638.41 174.59 639 174.25 638.56 174.25 638.38 174.58 638.41 174.59"/><path class="cls-1" d="m397.5,67.7c10.39-11.2,25.22-18.22,41.7-18.22s31.32,7.02,41.71,18.22c31.15,5.65,60.17,17.51,85.75,34.22,5.15-5.09,10.88-9.57,17.02-13.47-41.07-28.45-90.84-45.18-144.47-45.18s-104.59,17.14-145.94,46.22c6.19,3.82,11.96,8.25,17.17,13.27,25.89-17.16,55.37-29.32,87.06-35.06Z"/><path class="cls-1" d="m258.86,446.03c-11.81-3.69-21.96-11.13-29.07-20.92h-3.09l1.41-2.44c-5.79-8.91-9.16-19.52-9.16-30.93,0-4.22.47-8.34,1.35-12.3-9.56-25.47-14.79-53.03-14.79-81.8,0-8.65.51-17.18,1.43-25.59-6.93-2.38-13.5-5.5-19.66-9.25-1.57,11.4-2.45,23.01-2.45,34.84,0,104.27,63.09,194.04,153.08,233.27.54-7.23,1.8-14.25,3.77-20.98-32.22-14.86-60.5-36.83-82.82-63.89Z"/><path class="cls-1" d="m226.71,425.11h3.09c-.58-.8-1.14-1.61-1.68-2.44l-1.41,2.44Z"/><path class="cls-1" d="m442.05,534.28l3.4-3.05c-.58.02-1.17.02-1.75.04l-1.64,3.01Z"/><path class="cls-1" d="m439.2,531.32v1.04-1.04h0c-1.03,0-2.05-.02-3.07-.04l3.07,5.56,2.85-2.56,1.64-3.01c-1.5.03-2.99.05-4.5.05Z"/><path class="cls-1" d="m432.91,531.23l6.29,5.61-3.07-5.56c-1.07-.01-2.14-.03-3.21-.05Z"/><path class="cls-1" d="m445.45,531.23l-3.4,3.05-.27.49.27-.49-2.85,2.56-6.29-5.61c-27.87-.75-54.52-6.44-79.15-16.15-1.85,6.72-2.93,13.74-3.13,20.99,27.6,10.28,57.43,15.93,88.57,15.93s60.97-5.65,88.57-15.93c-.2-7.25-1.28-14.27-3.13-20.99-24.65,9.72-51.31,15.41-79.19,16.16Z"/><path class="cls-1" d="m690.89,261.01c-6.16,3.76-12.73,6.88-19.66,9.27,1.05,8.98,1.65,18.1,1.65,27.35,0,31.64-6.33,61.83-17.78,89.37.13,1.56.21,3.13.21,4.73,0,9.95-2.56,19.29-7.05,27.43l3.43,5.95h-7.22c-5.88,8.1-13.84,14.58-23.1,18.66-22.6,28.09-51.55,50.88-84.65,66.15,1.97,6.73,3.23,13.75,3.77,20.98,89.99-39.23,153.07-129,153.07-233.27,0-12.44-.94-24.66-2.67-36.63Z"/><path class="cls-1" d="m651.69,425.11l-3.43-5.95c-1.14,2.07-2.41,4.05-3.79,5.95h7.22Z"/><path class="cls-1" d="m488.3,449.55l-6.23,11.42c8.31,4.62,15.8,10.54,22.2,17.48l9.7-8.7c-7.39-8.03-16.04-14.87-25.66-20.2Z"/><path class="cls-1" d="m439.2,449.86v-12.98h0c-17.57,0-34.08,4.47-48.48,12.31l6.3,11.38c12.54-6.83,26.91-10.72,42.19-10.72h0Z"/><path class="cls-1" d="m364.25,469.94l9.72,8.68c6.61-7.21,14.38-13.33,23.03-18.04l-6.3-11.38c-9.95,5.42-18.88,12.45-26.46,20.75Z"/><path class="cls-1" d="m504.26,478.45c9.47,10.27,16.56,22.77,20.38,36.63,4.08-1.61,8.11-3.32,12.08-5.15-4.45-15.16-12.34-28.85-22.75-40.18l-9.7,8.7Z"/><path class="cls-1" d="m439.2,436.88v12.98c15.55,0,30.16,4.04,42.87,11.1l6.23-11.42c-14.55-8.06-31.28-12.66-49.1-12.66Z"/><path class="cls-1" d="m364.25,469.94c-10.32,11.29-18.15,24.9-22.57,39.98,3.97,1.83,7.99,3.54,12.08,5.15,3.79-13.77,10.83-26.21,20.22-36.45l-9.72-8.68Z"/><path class="cls-1" d="m524.64,515.07c1.85,6.72,2.93,13.74,3.13,20.99,4.3-1.6,8.53-3.34,12.72-5.16-.54-7.23-1.8-14.25-3.77-20.98-3.97,1.83-7.99,3.54-12.08,5.15Z"/><path class="cls-1" d="m341.68,509.92c-1.97,6.73-3.23,13.75-3.77,20.98,4.19,1.82,8.42,3.56,12.72,5.16.2-7.25,1.28-14.27,3.13-20.99-4.08-1.61-8.11-3.32-12.08-5.15Z"/><path class="cls-1" d="m335.51,141.17l-12.31,4.2c3.35,9.02,5.26,18.74,5.46,28.87h12.98c-.19-11.61-2.34-22.73-6.12-33.07Z"/><path class="cls-1" d="m254.78,276.57l-2.03-12.83c-4.17.6-8.43.92-12.77.92-10.99,0-21.48-2.1-31.2-5.77-.73,4.35-1.36,8.73-1.84,13.16,10.37,3.57,21.46,5.6,33.04,5.6,5.03,0,9.96-.37,14.8-1.08Z"/><path class="cls-1" d="m323.2,145.37l12.31-4.2c-5.37-14.68-14.03-27.78-25.08-38.41-3.71,2.46-7.37,4.99-10.92,7.65,10.47,9.51,18.68,21.47,23.69,34.97Z"/><path class="cls-1" d="m282.58,253.74c-9.1,5-19.16,8.45-29.83,10l2.03,12.83c12.21-1.78,23.71-5.73,34.11-11.44l-6.3-11.39Z"/><path class="cls-1" d="m328.07,226.78l-11.21-6.6c-8.13,14.08-20.01,25.73-34.27,33.57l6.3,11.39c16.31-8.96,29.89-22.26,39.19-38.35Z"/><path class="cls-1" d="m316.86,220.18l11.21,6.6c8.64-14.95,13.59-32.3,13.59-50.81,0-.58-.01-1.15-.02-1.72h-12.98c.01.57.02,1.15.02,1.72,0,16.09-4.31,31.18-11.82,44.21Z"/><path class="cls-1" d="m208.78,258.89c-6.84-2.58-13.29-5.93-19.21-10.03-.9,4.6-1.65,9.25-2.3,13.94,6.16,3.75,12.73,6.86,19.66,9.25.48-4.43,1.11-8.81,1.84-13.16Z"/><path class="cls-1" d="m310.43,102.76c-5.22-5.02-10.98-9.45-17.17-13.27-3.83,2.7-7.59,5.5-11.26,8.4,6.36,3.44,12.2,7.7,17.51,12.52,3.56-2.66,7.21-5.19,10.92-7.65Z"/><path class="cls-1" d="m554.32,145.14c4.81-13.71,12.9-25.9,23.31-35.63-3.58-2.64-7.25-5.16-10.98-7.6-10.95,10.81-19.46,24.08-24.62,38.92l12.29,4.3Z"/><path class="cls-1" d="m589.73,263.71c9.6,5.2,20.13,8.89,31.28,10.77l2.23-12.79c-9.71-1.64-18.9-4.87-27.27-9.4l-6.23,11.42Z"/><path class="cls-1" d="m638.07,262.94c-5.06,0-10.01-.43-14.84-1.25l-2.23,12.79c5.55.94,11.25,1.43,17.07,1.43,11.63,0,22.75-2.05,33.15-5.64-.52-4.42-1.17-8.79-1.93-13.12-9.73,3.68-20.22,5.78-31.23,5.78Z"/><path class="cls-1" d="m561.9,219.64c-7.95-13.29-12.53-28.82-12.53-45.4h-12.98c0,19,5.22,36.78,14.29,52l11.21-6.6Z"/><path class="cls-1" d="m536.4,174.25h12.98c0-10.2,1.75-19.99,4.94-29.11l-12.29-4.3c-3.64,10.46-5.63,21.7-5.63,33.41h0Z"/><path class="cls-1" d="m561.9,219.64l-11.21,6.6c9.38,15.74,22.89,28.73,39.04,37.47l6.23-11.42c-14.07-7.62-25.86-18.95-34.06-32.65Z"/><path class="cls-1" d="m671.23,270.28c6.93-2.39,13.5-5.52,19.66-9.27-.68-4.67-1.45-9.31-2.38-13.89-5.92,4.11-12.37,7.46-19.21,10.04.76,4.34,1.41,8.71,1.93,13.12Z"/><path class="cls-1" d="m577.63,109.51c5.25-4.9,11.05-9.21,17.36-12.73-3.7-2.87-7.46-5.66-11.32-8.33-6.14,3.9-11.87,8.38-17.02,13.47,3.73,2.44,7.4,4.96,10.98,7.6Z"/><path class="cls-1" d="m490.9,106.35c0,5.48-.87,10.77-2.45,15.73l4.89,1.71c1.77-5.5,2.74-11.35,2.74-17.44,0-14.93-5.76-28.5-15.16-38.65-3.03-.55-6.07-1.04-9.14-1.47,11.66,9.49,19.13,23.94,19.13,40.12Z"/><path class="cls-1" d="m395.14,133.37c-2.08-3.37-3.77-7-5.03-10.83l-4.9,1.67c1.68,5.09,4.06,9.86,7.02,14.2l2.91-5.04Z"/><path class="cls-1" d="m439.2,158.05h0c-8.93,0-17.34-2.28-24.68-6.28l-2.59,4.49c8.1,4.43,17.39,6.96,27.27,6.96v-5.17Z"/><path class="cls-1" d="m439.2,163.22c9.88,0,19.17-2.52,27.27-6.96l-2.59-4.49c-7.34,4-15.75,6.28-24.68,6.28v5.17Z"/><path class="cls-1" d="m486.17,138.41c3.05-4.46,5.48-9.38,7.17-14.62l-4.89-1.71c-1.28,4-3.03,7.78-5.19,11.29l2.91,5.04Z"/><path class="cls-1" d="m385.21,124.21l4.9-1.67c-1.69-5.1-2.61-10.54-2.61-16.19,0-16.17,7.47-30.63,19.14-40.12-3.07.43-6.11.92-9.14,1.47-9.41,10.15-15.17,23.72-15.17,38.65,0,6.24,1.02,12.24,2.88,17.86Z"/><path class="cls-1" d="m463.88,151.77l2.59,4.49c7.89-4.32,14.64-10.46,19.7-17.85l-2.91-5.04c-4.74,7.69-11.43,14.06-19.38,18.4Z"/><path class="cls-1" d="m411.93,156.26l2.59-4.49c-7.95-4.34-14.64-10.71-19.38-18.4l-2.91,5.04c5.06,7.39,11.81,13.53,19.7,17.85Z"/><path class="cls-1" d="m439.2,54.65c12.33,0,23.67,4.35,32.57,11.58,3.07.43,6.11.92,9.14,1.47-10.39-11.2-25.22-18.22-41.71-18.22s-31.32,7.02-41.7,18.22c3.03-.55,6.07-1.04,9.14-1.47,8.9-7.23,20.23-11.58,32.56-11.58Z"/><path class="cls-1" d="m485.73,106.35c0,4.88-.76,9.59-2.16,14.02l4.88,1.71c1.59-4.96,2.45-10.24,2.45-15.73,0-16.17-7.47-30.63-19.13-40.12-3.79-.53-7.6-.98-11.45-1.32,15.07,7.71,25.41,23.39,25.41,41.44Z"/><path class="cls-1" d="m439.2,158.05c8.93,0,17.34-2.28,24.68-6.28l-2.59-4.48c-6.58,3.56-14.1,5.59-22.09,5.59v5.17Z"/><path class="cls-1" d="m392.67,106.35c0-18.06,10.34-33.73,25.41-41.44-3.84.35-7.66.79-11.44,1.32-11.67,9.49-19.14,23.94-19.14,40.12,0,5.65.93,11.09,2.61,16.19l4.89-1.67c-1.51-4.57-2.33-9.45-2.33-14.52Z"/><path class="cls-1" d="m480.27,128.19l2.99,5.17c2.16-3.51,3.91-7.3,5.19-11.29l-4.88-1.71c-.86,2.73-1.97,5.34-3.3,7.82Z"/><path class="cls-1" d="m439.2,158.05v-5.17c-7.99,0-15.52-2.03-22.09-5.59l-2.59,4.48c7.34,4,15.75,6.28,24.68,6.28h0Z"/><path class="cls-1" d="m398.13,128.19c-1.24-2.33-2.29-4.78-3.13-7.32l-4.89,1.67c1.26,3.82,2.96,7.46,5.03,10.83l2.99-5.18Z"/><path class="cls-1" d="m461.29,147.29l2.59,4.48c7.95-4.34,14.64-10.71,19.38-18.4l-2.99-5.17c-4.31,8.07-10.93,14.74-18.98,19.1Z"/><path class="cls-1" d="m414.52,151.77l2.59-4.48c-8.05-4.36-14.66-11.02-18.98-19.1l-2.99,5.18c4.74,7.69,11.43,14.06,19.38,18.4Z"/><path class="cls-1" d="m437.58,59.86l1.62-2.8,1.62,2.8c7,.24,13.61,2.03,19.5,5.05,3.84.35,7.66.79,11.45,1.32-8.9-7.24-20.23-11.58-32.57-11.58s-23.67,4.35-32.56,11.58c3.79-.53,7.6-.97,11.44-1.32,5.89-3.01,12.5-4.81,19.5-5.05Z"/><path class="cls-1" d="m440.82,59.86l-1.62-2.8-1.62,2.8c.54-.02,1.07-.04,1.62-.04s1.08.02,1.62.04Z"/><path class="cls-1" d="m318.69,362.85l4.48-2.64c-4.82-7.23-11.26-13.28-18.79-17.67l-2.59,4.49c6.75,3.94,12.55,9.35,16.91,15.81Z"/><path class="cls-1" d="m315.26,425.11c-.18.21-.36.42-.54.62l3.87,3.46c1.15-1.31,2.24-2.67,3.26-4.08h-6.6Z"/><path class="cls-1" d="m264.99,341.18l-.81-5.12c-21.84,4.55-39.08,21.62-43.87,43.37,1.23,3.27,2.52,6.51,3.89,9.71,1.17-23.64,18.29-43.14,40.8-47.96Z"/><path class="cls-1" d="m323.17,360.22l-4.48,2.64c5.58,8.25,8.84,18.19,8.84,28.88,0,2.51-.19,4.98-.54,7.39h5.21c.31-2.42.49-4.89.49-7.39,0-11.66-3.51-22.49-9.53-31.51Z"/><path class="cls-1" d="m278.77,334.94c-.97-.05-1.95-.08-2.94-.08-3.99,0-7.89.42-11.65,1.2l.81,5.12c3.5-.75,7.12-1.15,10.84-1.15l2.94-5.1Z"/><path class="cls-1" d="m318.6,429.19l-3.87-3.46c-9.48,10.83-23.4,17.7-38.9,17.7-8.45,0-16.42-2.05-23.47-5.66,2.11,2.8,4.28,5.55,6.51,8.25,5.36,1.67,11.06,2.57,16.96,2.57,17.06,0,32.35-7.52,42.77-19.41Z"/><path class="cls-1" d="m326.99,399.13c-1.41,9.82-5.59,18.75-11.73,25.98h6.6c5.44-7.49,9.09-16.36,10.34-25.98h-5.21Z"/><path class="cls-1" d="m301.78,347.05l2.59-4.49c-7.6-4.42-16.3-7.14-25.61-7.62l-2.94,5.1s0,0,0,0c9.46,0,18.32,2.56,25.95,7.01Z"/><path class="cls-1" d="m236.39,425.11h-6.6c7.11,9.79,17.26,17.23,29.07,20.92-2.23-2.7-4.4-5.45-6.51-8.25-6.13-3.14-11.55-7.46-15.97-12.66Z"/><path class="cls-1" d="m224.13,391.73c0-.87.02-1.73.07-2.59-1.37-3.2-2.66-6.44-3.89-9.71-.87,3.96-1.35,8.07-1.35,12.3,0,11.41,3.37,22.03,9.16,30.93l2.95-5.11c-4.4-7.6-6.94-16.42-6.94-25.82Z"/><path class="cls-1" d="m231.07,417.56l-2.95,5.11c.54.83,1.1,1.64,1.68,2.44h6.6c-1.99-2.35-3.77-4.88-5.32-7.55Z"/><path class="cls-1" d="m314.22,365.48l4.47-2.63c-4.37-6.46-10.16-11.87-16.91-15.81l-2.58,4.47c5.98,3.49,11.12,8.27,15.03,13.96Z"/><path class="cls-1" d="m229.3,391.73c0-22.21,15.65-40.83,36.5-45.43l-.81-5.12c-22.5,4.82-39.62,24.32-40.8,47.96,2.02,4.72,4.19,9.36,6.5,13.91-.91-3.63-1.4-7.42-1.4-11.32Z"/><path class="cls-1" d="m318.69,362.85l-4.47,2.63c5.13,7.48,8.14,16.52,8.14,26.25,0,2.52-.21,4.99-.59,7.39h5.23c.35-2.42.54-4.88.54-7.39,0-10.69-3.26-20.63-8.84-28.88Z"/><path class="cls-1" d="m272.78,345.31l3.05-5.28c-3.72,0-7.34.4-10.84,1.15l.81,5.12c2.27-.5,4.6-.83,6.98-.99Z"/><path class="cls-1" d="m314.02,425.11l.7.62c.18-.21.36-.41.54-.62h-1.24Z"/><path class="cls-1" d="m308.2,425.11c-8.38,8.13-19.8,13.15-32.37,13.15s-23.99-5.02-32.37-13.15c2.83,4.32,5.8,8.54,8.9,12.66,7.05,3.61,15.02,5.66,23.47,5.66,15.5,0,29.41-6.86,38.9-17.7l-.7-.62h-5.82Z"/><path class="cls-1" d="m308.2,425.11h5.82l-3.15-2.82c-.85.97-1.74,1.91-2.67,2.82Z"/><path class="cls-1" d="m299.19,351.52l2.58-4.47c-7.63-4.45-16.5-7.01-25.95-7.01,0,0,0,0,0,0l-3.05,5.28c1.01-.07,2.02-.11,3.05-.11,8.51,0,16.49,2.31,23.37,6.32Z"/><path class="cls-1" d="m321.76,399.13c-1.41,8.78-5.29,16.75-10.89,23.17l3.15,2.82h1.24c6.13-7.23,10.31-16.16,11.73-25.98h-5.23Z"/><path class="cls-1" d="m243.46,425.11h-7.07c4.41,5.21,9.84,9.53,15.97,12.66-3.1-4.12-6.07-8.34-8.9-12.66,0,0,0,0,0,0Z"/><path class="cls-1" d="m230.7,403.05c-2.31-4.55-4.49-9.19-6.5-13.91-.04.86-.07,1.72-.07,2.59,0,9.4,2.54,18.22,6.94,25.82l3.04-5.26c-1.45-2.92-2.6-6.02-3.41-9.24Z"/><path class="cls-1" d="m234.1,412.3l-3.04,5.26c1.55,2.68,3.33,5.21,5.32,7.55h7.07c-3.8-3.69-6.98-8.02-9.35-12.81Z"/><path class="cls-1" d="m608.48,346.31c-.85-.19-1.71-.36-2.57-.5l2.04,3.54.53-3.04Z"/><path class="cls-1" d="m552.4,425.11c1.48,2.04,3.1,3.98,4.83,5.8l3.87-3.47c-.72-.76-1.43-1.53-2.1-2.33h-6.6Z"/><path class="cls-1" d="m598.44,443.43c-14.67,0-27.92-6.15-37.34-15.99l-3.87,3.47c10.36,10.89,24.98,17.69,41.2,17.69,8.16,0,15.92-1.73,22.93-4.83,2.82-3.51,5.55-7.1,8.17-10.78-8.66,6.54-19.44,10.43-31.1,10.43Z"/><path class="cls-1" d="m552.14,358.72l4.49,2.64c4.93-6.76,11.44-12.29,19.01-16.02l-2.6-4.5c-8.35,4.17-15.52,10.34-20.9,17.87Z"/><path class="cls-1" d="m556.63,361.36l-4.49-2.64c-6.65,9.31-10.58,20.7-10.58,33.01,0,2.51.18,4.97.49,7.39h5.21c-.35-2.42-.54-4.88-.54-7.39,0-11.34,3.68-21.84,9.9-30.37Z"/><path class="cls-1" d="m602.68,340.22c2.27.19,4.51.51,6.69.99l.89-5.11c-3.45-.73-7.01-1.14-10.66-1.21l3.08,5.33Z"/><path class="cls-1" d="m610.26,336.1l-.89,5.11c23.27,5.03,40.76,25.77,40.76,50.53,0,2.56-.19,5.07-.55,7.53,1.95-4.02,3.79-8.11,5.51-12.26-2.08-25.22-20.6-45.78-44.83-50.91Z"/><path class="cls-1" d="m542.06,399.13c1.25,9.63,4.9,18.49,10.34,25.98h6.6c-6.13-7.23-10.31-16.16-11.73-25.98h-5.21Z"/><path class="cls-1" d="m573.04,340.85l2.6,4.5c6.88-3.4,14.62-5.31,22.8-5.31,1.43,0,2.84.07,4.25.19l-3.08-5.33c-.39,0-.78-.03-1.17-.03-9.13,0-17.75,2.16-25.39,5.99Z"/><path class="cls-1" d="m629.54,433c-2.62,3.67-5.35,7.26-8.17,10.78,9.26-4.09,17.22-10.57,23.1-18.66h-6.6c-2.48,2.92-5.27,5.57-8.33,7.89Z"/><path class="cls-1" d="m645.17,413.81l3.09,5.35c4.49-8.13,7.05-17.48,7.05-27.43,0-1.59-.08-3.17-.21-4.73-1.72,4.15-3.56,8.23-5.51,12.26-.75,5.13-2.26,10.02-4.41,14.55Z"/><path class="cls-1" d="m637.87,425.11h6.6c1.38-1.9,2.65-3.88,3.79-5.95l-3.09-5.35c-1.94,4.09-4.4,7.88-7.3,11.3Z"/><path class="cls-1" d="m605.91,345.81c.87.14,1.72.31,2.57.5l.89-5.1c-2.18-.47-4.42-.8-6.69-.99l3.23,5.59Z"/><path class="cls-1" d="m561.1,364l-4.47-2.63c-6.22,8.53-9.9,19.03-9.9,30.37,0,2.51.19,4.98.54,7.39h5.23c-.39-2.41-.59-4.88-.59-7.39,0-10.39,3.42-19.99,9.2-27.74Z"/><path class="cls-1" d="m559,425.11c.68.8,1.38,1.57,2.1,2.33l2.6-2.33h-4.7Z"/><path class="cls-1" d="m630.81,425.11c-8.38,8.13-19.8,13.15-32.37,13.15s-23.99-5.02-32.37-13.15h-2.37l-2.6,2.33c9.42,9.84,22.67,15.99,37.34,15.99,11.67,0,22.44-3.89,31.1-10.43,1.85-2.59,3.65-5.22,5.4-7.89h-4.13Z"/><path class="cls-1" d="m644.97,391.73c0,5.8-1.08,11.36-3.03,16.48l1.57,2.72c2.13-3.83,4.15-7.72,6.07-11.67.36-2.46.55-4.97.55-7.53,0-24.76-17.49-45.49-40.76-50.53l-.89,5.1c20.84,4.61,36.48,23.22,36.48,45.43Z"/><path class="cls-1" d="m556.63,361.36l4.47,2.63c4.47-6,10.34-10.88,17.12-14.17l-2.59-4.48c-7.56,3.73-14.08,9.26-19.01,16.02Z"/><path class="cls-1" d="m564.95,423.99l-1.25,1.12h2.37c-.38-.37-.75-.74-1.12-1.12Z"/><path class="cls-1" d="m641.87,411.55l-1.06-.62c-2.43,5.34-5.84,10.15-10,14.18h4.13c3.02-4.61,5.88-9.34,8.57-14.18l-1.57-2.72c-.35.92-.73,1.82-1.13,2.71l1.06.62Z"/><path class="cls-1" d="m575.64,345.35l2.59,4.48c6.12-2.96,12.97-4.62,20.21-4.62,2.54,0,5.04.21,7.47.61l-3.23-5.59c-1.4-.11-2.82-.19-4.25-.19-8.18,0-15.92,1.92-22.8,5.31Z"/><path class="cls-1" d="m552.5,399.13h-5.23c1.41,9.82,5.59,18.75,11.73,25.98h4.7l1.25-1.12c-6.44-6.69-10.91-15.29-12.45-24.86Z"/><path class="cls-1" d="m645.17,413.81c2.15-4.53,3.66-9.42,4.41-14.55-1.92,3.95-3.94,7.85-6.07,11.67l1.66,2.88Z"/><path class="cls-1" d="m629.54,433c3.06-2.31,5.85-4.96,8.33-7.89h-2.93c-1.75,2.67-3.55,5.3-5.4,7.89Z"/><path class="cls-1" d="m634.94,425.11h2.93c2.9-3.42,5.36-7.21,7.3-11.3l-1.66-2.88c-2.69,4.83-5.55,9.56-8.57,14.18Z"/></svg>