<?xml version="1.0" encoding="UTF-8"?>
<svg id="Calque_6" xmlns="http://www.w3.org/2000/svg" viewBox="0 0 200 200">
    <defs><style>.cls-1,.cls-2{fill:#efefef;}.cls-2{opacity:0;}</style></defs>
    <path class="cls-1" d="m140.47,119.74c-2.04,4.15-4.72,7.93-7.87,11.25-.58-.23-1.18-.44-1.79-.61-4.09-1.1-8.37-.55-12.04,1.57-3.67,2.11-6.3,5.53-7.4,9.62-.19.7-.31,1.41-.4,2.12-3.54.89-7.23,1.4-11.03,1.4-.1,0-.2,0-.3,0-1,0-1.98-.1-2.96-.17l-10.12,5.81c4.17,1.1,8.52,1.76,13.03,1.79h.35c4.08,0,8.04-.5,11.86-1.39.31.85.68,1.68,1.14,2.47,2.93,5.09,8.28,7.95,13.77,7.95,2.68,0,5.39-.68,7.88-2.11,7.58-4.36,10.2-14.08,5.84-21.65-.5-.88-1.09-1.69-1.73-2.44,5.51-6.03,9.66-13.33,11.9-21.43l-10.13,5.82Zm-3.04,19.76c3.41,5.93,1.36,13.53-4.57,16.95-5.93,3.41-13.53,1.36-16.95-4.57-1.65-2.87-2.09-6.22-1.23-9.42.86-3.2,2.92-5.87,5.79-7.52,1.91-1.1,4.03-1.66,6.17-1.66,1.08,0,2.17.14,3.25.43,3.2.86,5.87,2.92,7.53,5.79Z"/>
    <path class="cls-1" d="m99.92,54.66h.3c3.82.03,7.57.52,11.18,1.46.09.73.2,1.47.39,2.19,1.07,4.1,3.67,7.54,7.32,9.68,2.47,1.45,5.21,2.19,8,2.19,1.34,0,2.69-.17,4.03-.52.63-.16,1.23-.37,1.82-.61,3.22,3.45,5.83,7.32,7.8,11.48l10.04,5.95c-2.1-8.03-6.06-15.46-11.71-21.75.64-.74,1.22-1.53,1.72-2.39,2.14-3.65,2.74-7.92,1.67-12.02-1.07-4.1-3.67-7.54-7.32-9.68-3.65-2.14-7.92-2.74-12.02-1.67-4.1,1.07-7.54,3.67-9.68,7.32-.46.78-.83,1.58-1.14,2.41-3.9-.94-7.94-1.45-12.05-1.47-.12,0-.23,0-.35,0-4.38,0-8.62.6-12.69,1.61l10.04,5.95c.88-.05,1.76-.13,2.65-.13Zm16.51-6.62c3.46-5.9,11.08-7.89,16.98-4.42,2.86,1.68,4.89,4.37,5.73,7.58.84,3.21.37,6.55-1.3,9.41-1.68,2.86-4.37,4.89-7.58,5.73-3.2.84-6.55.38-9.41-1.3-2.86-1.68-4.89-4.37-5.73-7.58-.84-3.21-.37-6.55,1.3-9.41Z"/>
    <path class="cls-1" d="m46.93,83.21c-4.22.13-8.23,1.6-11.24,4.57-3.01,2.97-4.69,6.95-4.72,11.18-.03,4.24,1.6,8.23,4.57,11.24,2.98,3.01,6.95,4.69,11.18,4.72h.11c.88,0,1.75-.09,2.6-.23,2.48,8.42,7,15.98,13.01,22.09l.08-11.59c-2.76-4.06-4.85-8.61-6.17-13.46.56-.43,1.11-.88,1.62-1.38,3.01-2.98,4.69-6.95,4.72-11.18.03-5.05-2.32-9.56-5.98-12.49,1.37-4.5,3.43-8.76,6.15-12.64l.08-11.56c-5.87,5.81-10.38,13-13.02,21.03-.96-.19-1.96-.3-2.98-.31Zm-.1,28.27h-.08c-6.84-.04-12.37-5.65-12.33-12.49.02-3.32,1.33-6.42,3.69-8.75,2.34-2.31,5.43-3.58,8.72-3.58h.08c6.84.04,12.37,5.65,12.33,12.49-.02,3.32-1.33,6.42-3.69,8.75-2.34,2.31-5.43,3.58-8.72,3.58Z"/>
    <path class="cls-2" d="m150.1,83.52c-2.63-8.03-7.14-15.22-13.02-21.03l.08,11.56c2.71,3.88,4.77,8.14,6.15,12.64-3.67,2.93-6.01,7.44-5.98,12.49.03,4.23,1.7,8.21,4.72,11.18.51.51,1.06.96,1.62,1.38-1.33,4.85-3.42,9.39-6.17,13.46l.08,11.59c6.01-6.1,10.53-13.67,13.01-22.09.85.14,1.72.23,2.6.23h.11c4.23-.03,8.21-1.7,11.18-4.72,2.98-3.02,4.6-7.01,4.57-11.24-.03-4.23-1.7-8.21-4.72-11.18-3.01-2.98-7.02-4.44-11.24-4.57-1.02,0-2.01.12-2.98.31Zm-5.64,24.38c-2.36-2.33-3.67-5.43-3.69-8.75-.04-6.84,5.49-12.45,12.33-12.49h.08c3.28,0,6.38,1.27,8.72,3.58,2.36,2.33,3.67,5.44,3.69,8.75.04,6.84-5.49,12.45-12.33,12.49h-.08c-3.28,0-6.38-1.27-8.72-3.58Z"/>
    <path class="cls-1" d="m130.02,47.93l-1.3,1.3,3.5,3.5,1.3-1.3c.67-.67.67-1.77,0-2.44l-1.06-1.06c-.67-.67-1.77-.67-2.44,0h0Zm-1.91,1.91l-6.28,6.29c-.28.28-.49.63-.6,1.01l-.95,3.24c-.07.23,0,.47.16.64.17.17.41.23.64.16l3.24-.95c.38-.11.73-.32,1.01-.6l6.29-6.29-3.5-3.5Z"/>
    <path class="cls-1" d="m118.92,142.24c0-.95.77-1.72,1.72-1.72h6.89c.95,0,1.72.77,1.72,1.72v6.89c0,.95-.77,1.72-1.72,1.72h-6.89c-.95,0-1.72-.77-1.72-1.72v-6.89Zm15.06-.76c.28.15.46.44.46.76v6.89c0,.32-.18.61-.46.76s-.62.13-.89-.04l-2.59-1.72-.38-.26v-4.37l.38-.26,2.59-1.72c.26-.18.6-.19.89-.04h0Z"/>
    <path class="cls-1" d="m49.41,99.06c0,.6-.03,1.17-.09,1.72h-4.99c-.06-.55-.09-1.13-.09-1.72s.03-1.17.09-1.72h4.99c.06.55.09,1.13.09,1.72Zm.78-1.72h3.32c.14.55.22,1.13.22,1.72s-.08,1.17-.22,1.72h-3.32c.06-.55.09-1.13.09-1.72s-.03-1.17-.09-1.72Zm3.03-.86h-3.14c-.27-1.72-.8-3.16-1.49-4.08,2.11.56,3.82,2.09,4.63,4.08h0Zm-4.02,0h-4.76c.16-.98.42-1.85.73-2.55.28-.64.6-1.1.9-1.39.3-.29.55-.37.75-.37s.45.09.75.37c.3.29.62.75.9,1.39.31.7.57,1.57.73,2.55Zm-5.63,0h-3.14c.81-2,2.52-3.53,4.63-4.08-.69.92-1.22,2.36-1.49,4.08h0Zm-3.43.86h3.32c-.06.55-.09,1.13-.09,1.72s.03,1.17.09,1.72h-3.32c-.14-.55-.22-1.13-.22-1.72s.08-1.17.22-1.72Zm5.03,6.86c-.31-.7-.56-1.57-.73-2.55h4.76c-.16.98-.42,1.85-.73,2.55-.28.64-.6,1.1-.9,1.39-.3.29-.55.37-.75.37s-.45-.09-.75-.37c-.3-.29-.62-.75-.9-1.39h0Zm-1.6-2.55c.27,1.72.8,3.16,1.49,4.08-2.11-.56-3.82-2.09-4.63-4.08h3.14Zm9.64,0c-.81,2-2.52,3.53-4.63,4.08.69-.92,1.22-2.36,1.49-4.08h3.14Z"/>
</svg>